<svg width="24" height="24" viewBox="0 0 24 24" fill="none" xmlns="http://www.w3.org/2000/svg">
<path d="M16.4276 11.3166C16.347 11.278 16.2651 11.2408 16.1822 11.2052C16.0377 8.5433 14.5832 7.01939 12.141 7.0038C12.1299 7.00373 12.1189 7.00373 12.1078 7.00373C10.6471 7.00373 9.43214 7.62726 8.68437 8.7619L10.0275 9.68328C10.5862 8.83575 11.4628 8.65507 12.1085 8.65507C12.1159 8.65507 12.1234 8.65507 12.1308 8.65514C12.935 8.66027 13.5418 8.89407 13.9345 9.35002C14.2203 9.68197 14.4115 10.1407 14.5061 10.7196C13.7932 10.5984 13.0221 10.5612 12.1978 10.6084C9.87583 10.7422 8.38307 12.0964 8.48333 13.9781C8.5342 14.9327 9.00973 15.7538 9.82225 16.2902C10.5092 16.7437 11.394 16.9655 12.3135 16.9153C13.5279 16.8487 14.4806 16.3854 15.1452 15.5382C15.6499 14.8948 15.9692 14.0611 16.1101 13.0106C16.6889 13.3598 17.1178 13.8194 17.3547 14.372C17.7574 15.3112 17.7809 16.8546 16.5216 18.1128C15.4182 19.2151 14.0919 19.692 12.0875 19.7067C9.86408 19.6902 8.18253 18.9772 7.08923 17.5873C6.06545 16.2859 5.53635 14.4061 5.51661 12.0001C5.53635 9.59409 6.06545 7.71428 7.08923 6.41285C8.18253 5.02301 9.86405 4.30996 12.0875 4.29344C14.3271 4.31009 16.0379 5.02657 17.1731 6.42311C17.7297 7.10796 18.1493 7.96921 18.426 8.97339L19.9999 8.55344C19.6646 7.31741 19.137 6.2523 18.4189 5.36897C16.9637 3.57854 14.8353 2.66111 12.093 2.64209H12.082C9.34524 2.66105 7.24071 3.58196 5.8269 5.37924C4.56879 6.97859 3.91982 9.20397 3.89802 11.9935L3.89795 12.0001L3.89802 12.0067C3.91982 14.7962 4.56879 17.0216 5.8269 18.621C7.24071 20.4182 9.34524 21.3392 12.082 21.3581H12.093C14.5261 21.3412 16.2412 20.7042 17.654 19.2926C19.5025 17.4459 19.4468 15.131 18.8376 13.71C18.4005 12.6909 17.5672 11.8632 16.4276 11.3166ZM12.2266 15.2663C11.2089 15.3236 10.1517 14.8669 10.0995 13.8885C10.0609 13.163 10.6158 12.3535 12.2891 12.2571C12.4807 12.2461 12.6687 12.2407 12.8535 12.2407C13.4612 12.2407 14.0298 12.2997 14.5468 12.4127C14.354 14.8206 13.223 15.2116 12.2266 15.2663Z" fill="black"/>
</svg>
