<svg width="200" height="200" viewBox="0 0 200 200" fill="none" xmlns="http://www.w3.org/2000/svg">
<path fill-rule="evenodd" clip-rule="evenodd" d="M116.043 138.625L116.042 138.799C116.039 138.739 116.039 138.681 116.043 138.625Z" fill="#1A1A1A"/>
<path fill-rule="evenodd" clip-rule="evenodd" d="M116.043 138.625L116.042 138.799C116.039 138.739 116.039 138.681 116.043 138.625Z" fill="#1A1A1A"/>
<path d="M105.714 160.178C101.139 159.772 96.5623 159.106 92.044 158.079C87.5257 157.047 83.0841 155.62 78.7868 153.803C74.2312 151.872 69.9085 149.398 65.8079 146.659L64.7806 145.974L63.7813 145.247C63.5579 145.081 63.3315 144.918 63.1051 144.755C62.6625 144.438 62.2195 144.119 61.7995 143.771L59.8643 142.231L57.9952 140.608C55.5392 138.403 53.2169 136.04 51.0644 133.52C48.9346 130.981 46.9709 128.297 45.1965 125.482C43.4175 122.668 41.8979 119.686 40.558 116.634C35.2644 104.397 33.5361 90.543 36.0258 77.2998C36.7816 73.2214 38.0052 69.2428 39.5192 65.4029C41.0429 61.5643 42.8968 57.8605 45.0948 54.3865C47.2769 50.9029 49.732 47.6029 52.4239 44.5176C55.1445 41.4587 58.0887 38.6123 61.2206 35.9963C64.3416 33.3645 67.7044 31.0366 71.1951 28.9373C74.6908 26.846 78.3161 24.9984 82.0658 23.4591C85.808 21.9059 89.6427 20.6002 93.5355 19.5306C97.4358 18.4902 101.39 17.6899 105.37 17.1047C110.176 16.4045 115.087 16.2661 119.85 16.4378C120.991 16.4927 122.03 16.574 122.973 16.6992C123.915 16.8456 124.761 17.0183 125.518 17.2127C126.275 17.3991 126.942 17.6337 127.527 17.8894C128.113 18.141 128.618 18.4072 129.05 18.6835C130.307 19.489 130.228 20.2362 129.081 20.7818C128.507 21.0545 127.665 21.2767 126.583 21.4295C125.5 21.601 124.175 21.7337 122.631 21.7829L121.64 21.8289C118.012 21.9969 114.139 22.1763 110.461 22.4756C101.222 23.2204 92.0829 25.3544 83.6054 29.0239C79.3693 30.8574 75.2999 33.068 71.5046 35.6565C67.7058 38.2459 64.1644 41.2112 60.9584 44.4908C57.4116 48.1155 54.2284 52.2991 51.3629 56.269C49.0776 59.4487 47.1098 62.8728 45.5092 66.4664C43.8848 70.0535 42.7335 73.841 41.9128 77.6866C40.3104 85.4026 40.3245 93.4405 41.6246 101.228C42.1292 104.12 42.8151 106.988 43.714 109.793C44.6398 112.588 45.746 115.323 47.0316 117.972C48.353 120.602 49.8472 123.143 51.4939 125.585C53.1697 128.007 55.0037 130.317 56.9572 132.52C63.9879 140.323 72.8819 146.459 82.6919 150.218C87.6063 152.098 92.7583 153.376 97.9937 154.222C103.233 155.065 108.562 155.465 113.914 155.587C116.054 155.63 118.168 155.657 120.249 155.683C125.66 155.75 130.851 155.815 135.714 156.165L135.707 156.15C135.632 155.984 135.556 155.816 135.44 155.643C135.147 155.108 134.712 154.57 134.278 154.041C133.368 152.985 132.281 151.987 131.142 151.039C129.998 150.092 128.791 149.191 127.546 148.327L127.339 148.183L127.325 148.174L127.148 148.051L127.02 147.963L127.009 147.955C126.196 147.392 125.373 146.821 124.581 146.237C123.667 145.567 122.784 144.885 121.935 144.189C121.389 143.917 120.846 143.643 120.307 143.368C118.008 142.186 116.771 140.825 116.217 139.505C116.111 139.249 116.053 139.013 116.042 138.799L116.043 138.625C116.061 138.362 116.156 138.135 116.319 137.949C116.4 137.604 116.731 137.407 117.263 137.445C118.1 137.249 119.329 137.348 120.838 137.805C123.016 138.463 125.314 139.381 127.469 140.311C137.401 144.59 147.699 147.935 158.174 150.649C158.766 150.803 159.369 150.954 159.969 151.105C160.967 151.355 161.972 151.607 162.962 151.879C164.629 152.336 165.614 154.072 165.162 155.756C164.884 156.791 164.128 157.565 163.2 157.903L162.925 158C162.312 158.218 161.699 158.425 161.088 158.613C160.946 158.658 160.803 158.7 160.661 158.741C160.497 158.788 160.334 158.835 160.173 158.889C159.872 158.99 159.572 159.086 159.271 159.176C155.037 160.427 150.978 162.432 147.171 164.88C143.35 167.315 139.73 170.116 136.122 172.961C134.247 174.449 132.417 176.012 130.611 177.617C128.945 179.53 127.122 181.378 125.076 183.043C123.899 184 122.177 183.813 121.23 182.625C120.335 181.504 120.45 179.892 121.454 178.91L121.53 178.836C124.078 176.358 126.658 173.887 129.317 171.476C130.227 170.396 131.124 169.286 132.024 168.164L133.485 166.341C133.574 166.233 133.641 166.144 133.707 166.057L133.766 165.98L133.807 165.927C133.835 165.889 133.864 165.852 133.893 165.815C133.965 165.721 134.038 165.627 134.102 165.527L134.383 165.118L134.641 164.694C135.318 163.559 135.798 162.314 136.054 161.037C136.198 160.277 136.264 159.504 136.238 158.74C131.112 159.487 125.724 160.066 120.308 160.346C115.551 160.595 110.63 160.435 105.764 160.091C105.748 160.12 105.733 160.148 105.714 160.178Z" fill="#1A1A1A"/>
</svg>
