<svg width="24" height="24" viewBox="0 0 24 24" fill="none" xmlns="http://www.w3.org/2000/svg">
<path d="M7.71948 6.53061C7.64974 6.46095 7.59443 6.37823 7.55668 6.28718C7.51894 6.19614 7.49951 6.09854 7.49951 5.99998C7.49951 5.90142 7.51894 5.80382 7.55668 5.71277C7.59443 5.62173 7.64974 5.53901 7.71948 5.46935L11.4695 1.71935C11.5391 1.64962 11.6218 1.5943 11.7129 1.55656C11.8039 1.51882 11.9015 1.49939 12.0001 1.49939C12.0987 1.49939 12.1963 1.51882 12.2873 1.55656C12.3784 1.5943 12.4611 1.64962 12.5307 1.71935L16.2807 5.46935C16.3505 5.53901 16.4058 5.62173 16.4435 5.71277C16.4813 5.80382 16.5007 5.90142 16.5007 5.99998C16.5007 6.09854 16.4813 6.19614 16.4435 6.28718C16.4058 6.37823 16.3505 6.46095 16.2807 6.53061L12.5307 10.2806C12.4611 10.3503 12.3784 10.4057 12.2873 10.4434C12.1963 10.4811 12.0987 10.5006 12.0001 10.5006C11.9015 10.5006 11.8039 10.4811 11.7129 10.4434C11.6218 10.4057 11.5391 10.3503 11.4695 10.2806L7.71948 6.53061ZM12.5307 13.7194C12.4611 13.6496 12.3784 13.5943 12.2873 13.5566C12.1963 13.5188 12.0987 13.4994 12.0001 13.4994C11.9015 13.4994 11.8039 13.5188 11.7129 13.5566C11.6218 13.5943 11.5391 13.6496 11.4695 13.7194L7.71948 17.4694C7.64974 17.539 7.59443 17.6217 7.55668 17.7128C7.51894 17.8038 7.49951 17.9014 7.49951 18C7.49951 18.0985 7.51894 18.1961 7.55668 18.2872C7.59443 18.3782 7.64974 18.4609 7.71948 18.5306L11.4695 22.2806C11.5391 22.3503 11.6218 22.4057 11.7129 22.4434C11.8039 22.4811 11.9015 22.5006 12.0001 22.5006C12.0987 22.5006 12.1963 22.4811 12.2873 22.4434C12.3784 22.4057 12.4611 22.3503 12.5307 22.2806L16.2807 18.5306C16.3505 18.4609 16.4058 18.3782 16.4435 18.2872C16.4813 18.1961 16.5007 18.0985 16.5007 18C16.5007 17.9014 16.4813 17.8038 16.4435 17.7128C16.4058 17.6217 16.3505 17.539 16.2807 17.4694L12.5307 13.7194ZM22.2807 11.4694L18.5307 7.71935C18.4611 7.64962 18.3784 7.5943 18.2873 7.55656C18.1963 7.51882 18.0987 7.49939 18.0001 7.49939C17.9015 7.49939 17.8039 7.51882 17.7129 7.55656C17.6218 7.5943 17.5391 7.64962 17.4695 7.71935L13.7195 11.4694C13.6497 11.539 13.5944 11.6217 13.5567 11.7128C13.5189 11.8038 13.4995 11.9014 13.4995 12C13.4995 12.0985 13.5189 12.1961 13.5567 12.2872C13.5944 12.3782 13.6497 12.4609 13.7195 12.5306L17.4695 16.2806C17.5391 16.3503 17.6218 16.4057 17.7129 16.4434C17.8039 16.4811 17.9015 16.5006 18.0001 16.5006C18.0987 16.5006 18.1963 16.4811 18.2873 16.4434C18.3784 16.4057 18.4611 16.3503 18.5307 16.2806L22.2807 12.5306C22.3505 12.4609 22.4058 12.3782 22.4435 12.2872C22.4813 12.1961 22.5007 12.0985 22.5007 12C22.5007 11.9014 22.4813 11.8038 22.4435 11.7128C22.4058 11.6217 22.3505 11.539 22.2807 11.4694ZM10.2807 11.4694L6.53073 7.71935C6.46107 7.64962 6.37836 7.5943 6.28731 7.55656C6.19626 7.51882 6.09866 7.49939 6.0001 7.49939C5.90154 7.49939 5.80395 7.51882 5.7129 7.55656C5.62185 7.5943 5.53913 7.64962 5.46948 7.71935L1.71948 11.4694C1.64974 11.539 1.59443 11.6217 1.55668 11.7128C1.51894 11.8038 1.49951 11.9014 1.49951 12C1.49951 12.0985 1.51894 12.1961 1.55668 12.2872C1.59443 12.3782 1.64974 12.4609 1.71948 12.5306L5.46948 16.2806C5.53913 16.3503 5.62185 16.4057 5.7129 16.4434C5.80395 16.4811 5.90154 16.5006 6.0001 16.5006C6.09866 16.5006 6.19626 16.4811 6.28731 16.4434C6.37836 16.4057 6.46107 16.3503 6.53073 16.2806L10.2807 12.5306C10.3505 12.4609 10.4058 12.3782 10.4435 12.2872C10.4813 12.1961 10.5007 12.0985 10.5007 12C10.5007 11.9014 10.4813 11.8038 10.4435 11.7128C10.4058 11.6217 10.3505 11.539 10.2807 11.4694Z" fill="#F5284B"/>
</svg>
