<svg width="49" height="28" viewBox="0 0 49 28" fill="none" xmlns="http://www.w3.org/2000/svg">
<g clip-path="url(#clip0_99_815)">
<path d="M26.0786 1.1311C26.7262 0.457369 27.6058 0.0788697 28.5216 0.0788697C32.6423 0.0788697 36.5255 0.0788718 40.3497 0.0788795C48.0411 0.0788956 51.8927 9.75303 46.454 15.4109L34.6072 27.7352C34.0634 28.301 33.1334 27.9002 33.1334 27.1001V16.2453L34.5025 14.821C35.5902 13.6895 34.8199 11.7546 33.2816 11.7546H15.8667L26.0786 1.1311Z" fill="#3A04FF"/>
<path d="M22.9214 26.8689C22.2739 27.5427 21.3943 27.9212 20.4784 27.9212C16.3578 27.9212 12.4746 27.9212 8.65039 27.9212C0.958879 27.9211 -2.89265 18.247 2.54604 12.5891L14.3928 0.264858C14.9367 -0.300935 15.8666 0.099783 15.8666 0.899934L15.8667 11.7546L14.4976 13.179C13.4098 14.3106 14.1802 16.2454 15.7185 16.2454L33.1334 16.2453L22.9214 26.8689Z" fill="#3A04FF"/>
</g>
<defs>
<clipPath id="clip0_99_815">
<rect width="49" height="28" fill="white"/>
</clipPath>
</defs>
</svg>
