<svg width="24" height="24" viewBox="0 0 24 24" fill="none" xmlns="http://www.w3.org/2000/svg">
<path d="M13.4998 7.09809C12.0649 7.92652 10.2302 7.43489 9.40173 6.00002C8.5733 4.56514 9.06493 2.73036 10.4998 1.90194C11.9347 1.07351 13.7695 1.56513 14.5979 3.00001C15.4263 4.43489 14.9347 6.26966 13.4998 7.09809Z" fill="white"/>
<path d="M9.40173 21C10.2302 22.4349 12.0649 22.9265 13.4998 22.0981C14.9347 21.2697 15.4263 19.4349 14.5979 18C13.7695 16.5651 11.9347 16.0735 10.4998 16.9019C9.06493 17.7304 8.5733 19.5651 9.40173 21Z" fill="white"/>
<path d="M4.97644 9.99279C4.17711 10.4543 3.90324 11.4764 4.36473 12.2757C4.78615 13.0056 5.68513 13.3075 6.46168 12.9799L16.5661 8.71679C18.5043 7.89906 20.7481 8.65254 21.7999 10.4743C22.9518 12.4694 22.2682 15.0205 20.2732 16.1723L18.0399 17.4617C17.442 17.8069 16.6775 17.6021 16.3323 17.0042C15.9871 16.4063 16.192 15.6418 16.7899 15.2967L19.0232 14.0073C19.8225 13.5458 20.0963 12.5237 19.6349 11.7243C19.2134 10.9944 18.3145 10.6925 17.5379 11.0202L7.43348 15.2833C5.49528 16.101 3.25149 15.3475 2.19967 13.5257C1.04782 11.5306 1.73138 8.97957 3.72644 7.82772L5.95973 6.53833C6.5576 6.19315 7.32209 6.39799 7.66726 6.99586C8.01244 7.59372 7.8076 8.35821 7.20973 8.70339L4.97644 9.99279Z" fill="white"/>
</svg>
