<svg width="200" height="200" viewBox="0 0 200 200" fill="none" xmlns="http://www.w3.org/2000/svg">
<path d="M105.749 127.444C102.224 131.004 98.5866 134.45 94.8433 137.776C95.5182 136.527 96.177 135.27 96.8196 134.003C99.8299 128.189 102.588 122.28 105.28 116.358L105.288 116.341C105.536 115.794 105.574 115.175 105.396 114.601C105.217 114.028 104.835 113.54 104.32 113.23C103.805 112.921 103.195 112.811 102.605 112.921C102.015 113.032 101.486 113.356 101.118 113.831C98.4278 117.322 95.6827 120.768 92.8831 124.168C90.0763 127.563 87.2096 130.905 84.2831 134.197C79.0564 140.073 73.5103 145.718 67.8524 151.202C64.1526 154.774 60.4093 158.3 56.6225 161.779C56.1905 162.176 55.9056 162.708 55.8141 163.287C55.7226 163.866 55.8299 164.46 56.1186 164.97C56.4073 165.481 56.8603 165.879 57.4039 166.099C57.9476 166.32 58.5498 166.35 59.1126 166.184L59.1686 166.168C68.408 163.436 77.8343 161.381 87.3726 160.021C87.3928 159.991 87.4114 159.96 87.4285 159.928C91.2869 159.338 95.1878 158.926 99.0682 158.671C102.949 158.416 106.811 158.314 110.594 158.407L113.793 158.555L114.064 158.569C114.688 158.597 115.301 158.409 115.802 158.038C116.303 157.666 116.661 157.133 116.815 156.529C116.969 155.924 116.909 155.285 116.647 154.719C116.385 154.153 115.935 153.695 115.374 153.422L114.535 153.013C114.254 152.876 113.973 152.742 113.707 152.643C113.551 152.582 113.393 152.518 113.236 152.455C112.852 152.3 112.468 152.144 112.094 152.025C111.028 151.645 109.974 151.333 108.922 151.031C106.82 150.445 104.727 149.982 102.639 149.563C98.6172 148.766 94.5502 148.216 90.4612 147.915C91.8631 146.78 93.253 145.633 94.6308 144.473C97.415 142.109 100.149 139.694 102.834 137.228C107.872 132.565 112.711 127.672 117.296 122.547C118.129 121.634 118.942 120.697 119.752 119.764C120.067 119.401 120.385 119.035 120.702 118.673C121.038 118.274 121.375 117.875 121.713 117.477C122.487 116.564 123.262 115.65 124.013 114.717L125.641 112.717L127.242 110.694C128.308 109.345 129.356 107.974 130.386 106.583C134.496 101.029 138.308 95.0418 140.814 88.3429C141.444 86.6657 141.977 84.9539 142.411 83.2158C142.448 83.0534 142.485 82.8897 142.522 82.7274C142.687 82.0078 142.852 81.2856 142.963 80.5556C142.988 80.3991 143.016 80.243 143.044 80.087C143.096 79.7972 143.149 79.5074 143.178 79.2143L143.336 77.8644C143.516 76.0573 143.565 74.2395 143.482 72.4252C143.472 71.7678 143.405 71.1083 143.34 70.4522C143.315 70.2016 143.29 69.9508 143.268 69.7001C143.23 69.4004 143.183 69.1012 143.136 68.8021C143.113 68.6518 143.088 68.4934 143.066 68.343L142.961 67.6646L142.819 66.9908C141.912 62.2662 139.729 57.88 136.507 54.308C134.859 52.5056 132.956 50.9556 130.857 49.7078C128.812 48.4944 126.638 47.5153 124.374 46.789C120.398 45.5799 116.275 44.9202 112.12 44.8284C111.363 44.7898 110.608 44.7917 109.854 44.7935C109.589 44.7942 109.323 44.7949 109.058 44.7938C108.727 44.798 108.397 44.8094 108.068 44.8209C107.889 44.8271 107.711 44.8332 107.533 44.8383C107.024 44.8519 106.517 44.8712 106.011 44.9079C103.983 45.0044 101.974 45.2313 99.9788 45.4694C95.9806 45.9605 92.0144 46.6832 88.0999 47.6337C87.7535 47.7248 87.4062 47.8126 87.059 47.9004C86.4293 48.0596 85.7993 48.2189 85.1746 48.3977L82.274 49.2582L79.4071 50.2325C78.8068 50.4409 78.2142 50.673 77.6218 50.905C77.2735 51.0415 76.925 51.178 76.5751 51.3096C69.0753 54.2898 61.9349 58.4402 55.9536 64.0156C54.4619 65.417 53.0454 66.8964 51.7101 68.4476C50.384 70.0159 49.1603 71.668 48.0466 73.3935C45.8251 76.8546 44.0335 80.5735 42.7115 84.4678C42.1419 86.1848 41.6665 87.9316 41.2875 89.7004C40.9132 91.4932 40.6513 93.3077 40.5032 95.1331C40.3514 96.9482 40.3297 98.7717 40.4381 100.59C40.4722 101.364 40.5575 102.13 40.6421 102.89C40.656 103.015 40.6699 103.14 40.6836 103.265C40.7013 103.381 40.7188 103.496 40.7363 103.612C40.8517 104.373 40.966 105.128 41.1311 105.867C41.5904 108.159 42.3301 110.385 43.3333 112.497C43.5279 112.929 43.7425 113.323 43.9485 113.688C44.0039 113.785 44.0574 113.881 44.1098 113.974C44.2533 114.231 44.391 114.478 44.5383 114.697C44.8613 115.21 45.2152 115.702 45.5979 116.172C46.8787 117.657 47.2415 117.38 46.5727 115.31C46.4795 114.981 46.3776 114.632 46.2695 114.262C45.9026 113.006 45.4631 111.502 45.0473 109.68C44.3775 106.789 43.9885 103.84 43.8856 100.874C43.6138 93.4503 45.5535 85.8507 48.9786 79.1696C50.394 76.3944 52.0947 73.7743 54.0532 71.3516C55.0334 70.1416 56.0844 68.9907 57.2007 67.905C57.9712 67.0844 58.8166 66.3403 59.662 65.5962C59.9925 65.3052 60.323 65.0143 60.6491 64.7188C63.0826 62.7306 65.6596 60.9247 68.359 59.3157C71.0929 57.7367 73.9278 56.3393 76.8452 55.1326C82.7503 52.7876 88.9019 51.1188 95.1825 50.158C101.469 49.18 107.871 48.6454 114.058 49.2429C117.116 49.504 120.13 50.1345 123.036 51.1204C125.842 52.0867 128.453 53.5484 130.743 55.4361C130.889 55.5452 131.027 55.6656 131.154 55.7961L131.549 56.1735C131.651 56.2727 131.755 56.3706 131.859 56.4686C132.02 56.6202 132.181 56.7719 132.337 56.928L133.054 57.7431C133.098 57.7931 133.142 57.8424 133.186 57.8917C133.263 57.9768 133.34 58.0625 133.412 58.1515L133.736 58.5886L134.386 59.4616L134.967 60.386C135.002 60.4418 135.038 60.4979 135.073 60.5531C135.136 60.6501 135.199 60.7485 135.256 60.8493L135.512 61.3346C135.578 61.4612 135.645 61.5868 135.712 61.7125C135.818 61.909 135.923 62.1054 136.022 62.3052C137.28 64.9989 138.074 67.886 138.369 70.8442L138.48 71.9628L138.526 73.089L138.55 73.6519L138.544 74.2165L138.53 75.3455C138.465 76.8524 138.303 78.3536 138.045 79.8397C137.503 82.8461 136.618 85.7805 135.407 88.5854C132.991 94.2744 129.488 99.5646 125.626 104.649C119.494 112.664 112.855 120.278 105.749 127.444ZM83.5862 147.169C83.4322 147.289 83.2781 147.409 83.1238 147.53L83.2609 147.659C83.1203 147.87 82.9792 148.081 82.8376 148.292L82.8309 148.3C82.5255 148.747 82.3898 149.289 82.4482 149.827C82.5067 150.365 82.7554 150.864 83.1496 151.235C83.5438 151.606 84.0576 151.824 84.5982 151.849C85.1389 151.875 85.6708 151.707 86.0983 151.375C86.2982 151.219 86.4978 151.064 86.6972 150.908L86.8431 151.046C86.9605 150.87 87.0777 150.695 87.1944 150.519C87.5362 150.25 87.8773 149.981 88.2177 149.712C88.3778 149.742 88.5434 149.772 88.7145 149.803C90.7123 150.16 92.7294 150.606 94.7741 151.082C96.8194 151.555 98.8886 152.088 100.978 152.659C102.42 153.05 103.87 153.469 105.32 153.924C103.561 153.922 101.801 153.975 100.043 154.08C96.4529 154.281 92.8803 154.635 89.3213 155.076C85.7659 155.545 82.2288 156.113 78.7103 156.778C75.1954 157.46 71.6933 158.206 68.2168 159.061C67.2391 159.301 66.2632 159.548 65.2891 159.801C71.4039 154.003 77.4054 148.066 83.1924 141.909C86.4818 138.414 89.6985 134.849 92.8439 131.223C92.7467 131.411 92.6494 131.599 92.5519 131.787C89.8524 137.077 86.8592 142.213 83.5862 147.169Z" fill="#1A1A1A"/>
</svg>
