<svg width="24" height="24" viewBox="0 0 24 24" fill="none" xmlns="http://www.w3.org/2000/svg">
<g clip-path="url(#clip0_140_674)">
<path d="M13.0079 2.58787C12.3852 2.22462 11.6152 2.22462 10.9924 2.58787L1.48099 8.13624C0.819486 8.52212 0.819487 9.47793 1.48099 9.8638L10.9924 15.4122C11.0703 15.4576 11.1504 15.4973 11.2323 15.5314C11.8054 15.7698 12.463 15.73 13.0079 15.4122L21.5002 10.4584V14.75C21.5002 15.4404 22.0598 16 22.7502 16C23.4406 16 24.0002 15.4404 24.0002 14.75V9.57439C24.0002 9.21873 23.8113 8.88983 23.5041 8.71062L13.0079 2.58787Z" fill="#1A1A1A"/>
<path d="M4.99249 18.9122C4.37805 18.5537 4.00023 17.8959 4.00023 17.1846V13.8334L10.9924 17.9122C11.6152 18.2754 12.3852 18.2754 13.0079 17.9122L20.0002 13.8334V17.1846C20.0002 17.8959 19.6224 18.5537 19.0079 18.9122L13.0079 22.4122C12.3852 22.7754 11.6152 22.7754 10.9924 22.4122L4.99249 18.9122Z" fill="#1A1A1A"/>
</g>
<defs>
<clipPath id="clip0_140_674">
<rect width="24" height="24" fill="white"/>
</clipPath>
</defs>
</svg>
