<svg width="24" height="24" viewBox="0 0 24 24" fill="none" xmlns="http://www.w3.org/2000/svg">
<path d="M13.2122 16.3265L20.4122 10.8409C21.4627 10.0405 21.4627 8.4596 20.4121 7.65918L13.2122 2.17354C12.4963 1.62803 11.5041 1.62803 10.7881 2.17354L3.58816 7.65918C2.53761 8.4596 2.53761 10.0405 3.58816 10.8409L10.7881 16.3265C11.5041 16.8721 12.4963 16.8721 13.2122 16.3265Z" fill="#1A1A1A"/>
<path d="M19.314 14.1776C19.7405 13.8526 20.3316 13.8528 20.758 14.1779C21.3832 14.6546 21.3832 15.5955 20.758 16.0722L13.2128 21.8254C12.4966 22.3715 11.5037 22.3715 10.7875 21.8254L3.24231 16.0722C2.61715 15.5955 2.61715 14.6546 3.24231 14.1779C3.29561 14.1372 3.35149 14.1017 3.40929 14.0712C3.81392 13.8578 4.31314 13.8933 4.68635 14.1776L12.0002 19.75L19.314 14.1776Z" fill="#1A1A1A"/>
</svg>
