<svg width="200" height="200" viewBox="0 0 200 200" fill="none" xmlns="http://www.w3.org/2000/svg">
<path d="M52.7134 67.7989C53.4898 69.8462 54.2569 71.8962 54.9709 73.9698C55.3621 75.064 55.7423 76.1681 56.2056 77.2321C58.6839 82.9087 61.2316 88.5592 63.5724 94.2966C64.9969 97.8355 66.3847 101.389 67.7359 104.958L69.746 110.317L71.6961 115.697C72.0624 116.797 72.34 117.923 72.5262 119.067C72.6234 119.532 72.6085 120.013 72.4829 120.471C72.3572 120.929 72.1243 121.35 71.8034 121.701C70.9357 122.69 69.5572 122.508 68.7489 121.165C68.2445 120.279 67.8531 119.333 67.5839 118.349C66.9275 116.121 66.1787 113.929 65.3374 111.774C64.504 109.616 63.5823 107.492 62.5723 105.403C62.0159 104.249 61.3668 103.076 61.0762 101.859C60.1433 97.9705 58.3987 94.3648 57.1576 90.5854C56.2332 87.7768 55.0952 85.0346 54.0854 82.2516L51.3772 74.8092C50.4605 72.3339 49.6046 69.8333 48.6949 67.3536C48.3679 66.3777 48.1055 65.3814 47.9095 64.3711C47.748 63.411 47.6399 62.4428 47.5857 61.4708C47.5357 60.6112 48.0781 60.4415 48.7011 61.204C49.5924 62.2999 50.406 63.4567 51.1361 64.6658C51.4364 65.162 51.7094 65.6778 51.9606 66.2049C52.1897 66.7412 52.4197 67.2794 52.6483 67.8144L52.7134 67.7989Z" fill="#1A1A1A"/>
<path d="M115.83 61.1964L115.522 63.9804L115.147 66.7603C115.016 67.7438 114.885 68.7321 114.839 69.7219C114.774 71.0423 114.726 72.3636 114.683 73.6849L114.53 77.6461L114.243 85.566L113.865 95.3165L113.541 105.07C113.481 106.057 113.35 107.039 113.149 108.007C113.084 108.407 112.925 108.787 112.686 109.115C112.447 109.443 112.135 109.711 111.774 109.897C110.79 110.432 109.754 109.875 109.506 108.545C109.364 107.678 109.334 106.795 109.417 105.92C109.716 101.938 109.762 97.941 109.556 93.9532C109.432 92.8506 109.434 91.7375 109.562 90.6353C110.154 87.2399 110.039 83.7911 110.426 80.3833C110.716 77.8525 110.825 75.297 111.102 72.7615C111.615 68.2416 112.172 63.7302 112.893 59.2399C113.148 57.5322 113.685 55.8786 114.481 54.3457C114.824 53.6816 115.389 53.7899 115.535 54.6171C115.735 55.8035 115.856 57.0017 115.899 58.2039C115.916 59.1983 115.873 60.1927 115.772 61.182L115.83 61.1964Z" fill="#1A1A1A"/>
<path d="M168.515 89.2914C167.481 90.5362 166.44 91.7771 165.393 93.0139C164.809 93.6466 164.263 94.3134 163.758 95.0108C162.454 96.8964 161.191 98.8115 159.93 100.725C158.666 102.638 157.391 104.54 156.086 106.42C154.485 108.74 152.859 111.041 151.239 113.346L146.341 120.235C145.812 120.92 145.201 121.539 144.523 122.076C143.889 122.617 142.987 122.629 142.009 122.35C140.584 121.945 139.617 120.706 139.979 119.558C140.233 118.834 140.634 118.169 141.158 117.608C143.436 114.989 145.398 112.111 147.002 109.033C147.45 108.181 147.854 107.248 148.562 106.614C150.809 104.582 152.269 101.957 154.249 99.7289C155.714 98.0698 157.019 96.2777 158.451 94.5911C159.729 93.087 161.017 91.5933 162.317 90.1098L166.311 85.7369C167.346 84.5905 168.641 83.7077 170.087 83.1619C170.23 83.098 170.388 83.0782 170.542 83.1049C170.696 83.1316 170.839 83.2037 170.952 83.312C171.065 83.4202 171.142 83.5596 171.175 83.7123C171.208 83.865 171.195 84.0241 171.136 84.1691C170.79 85.172 170.385 86.1535 169.923 87.1084C169.489 87.854 169.001 88.5666 168.462 89.2403L168.515 89.2914Z" fill="#1A1A1A"/>
<path d="M180.227 136.273C179.834 136.457 179.447 136.656 179.041 136.816L177.822 137.294C177.387 137.452 176.966 137.646 176.563 137.875C175.511 138.522 174.48 139.211 173.419 139.839C172.363 140.479 171.305 141.113 170.226 141.707C168.898 142.44 167.559 143.149 166.197 143.813L162.111 145.807C161.669 145.986 161.197 146.08 160.719 146.085C160.253 146.118 159.73 145.695 159.22 145.057C158.475 144.126 158.15 142.898 158.569 142.362C158.837 142.044 159.2 141.819 159.605 141.719C161.391 141.187 163.053 140.307 164.497 139.129C164.903 138.803 165.29 138.392 165.81 138.327C167.462 138.101 168.749 137.116 170.266 136.611C171.397 136.243 172.423 135.65 173.541 135.25C175.53 134.527 177.496 133.759 179.515 133.1C180.347 132.815 181.247 132.794 182.09 133.042C182.193 133.074 182.288 133.129 182.367 133.201C182.447 133.274 182.51 133.363 182.551 133.462C182.593 133.562 182.612 133.669 182.608 133.777C182.604 133.885 182.576 133.99 182.526 134.086C182.352 134.332 182.168 134.573 181.977 134.806C181.794 135.038 181.591 135.254 181.371 135.452C181.006 135.742 180.616 135.999 180.204 136.218L180.227 136.273Z" fill="#1A1A1A"/>
<path d="M21.7631 126.48C22.6652 126.998 23.5602 127.525 24.4482 128.06C24.9114 128.355 25.3919 128.622 25.8873 128.86C27.2313 129.434 28.5715 130.024 29.902 130.64C31.2296 131.261 32.5324 131.933 33.8105 132.654C35.3728 133.559 36.9092 134.511 38.4031 135.527C39.8971 136.542 41.3627 137.597 42.7998 138.692C43.2291 139.052 43.5945 139.482 43.8806 139.963C44.1815 140.414 44.08 141.079 43.7625 141.806C43.2989 142.865 42.3176 143.619 41.5922 143.413C41.1448 143.265 40.7433 143.005 40.4266 142.656C38.9368 141.142 37.1606 139.94 35.2013 139.118C34.6602 138.883 34.0566 138.709 33.6661 138.276C32.4181 136.882 30.6927 136.212 29.2235 135.148C28.6742 134.755 28.104 134.393 27.5154 134.062C26.9341 133.718 26.3423 133.392 25.7643 133.042C23.7019 131.793 21.6188 130.557 19.477 129.417C18.5914 128.909 17.8926 128.13 17.4833 127.195C17.2524 126.764 17.4627 126.3 18.0301 126.079L18.6086 125.921C18.6973 125.892 18.7908 125.88 18.8838 125.887L19.1455 125.892C19.4907 125.902 19.835 125.932 20.1765 125.983C20.4504 126.026 20.7189 126.099 20.9775 126.199C21.2299 126.31 21.4781 126.432 21.7316 126.539L21.7631 126.48Z" fill="#1A1A1A"/>
</svg>
