<svg width="24" height="24" viewBox="0 0 24 24" fill="none" xmlns="http://www.w3.org/2000/svg">
<path fill-rule="evenodd" clip-rule="evenodd" d="M12 2C8.13401 2 5 5.13401 5 9V11.9609C5 13.2665 4.48135 14.5187 3.55814 15.4419C3.20077 15.7992 3 16.2839 3 16.7893V17.6623C3 18.4011 3.59891 19 4.33771 19H7.56299C7.56299 19.3728 7.56638 20.2787 8.0572 21.1698C8.81938 22.5535 10.2974 23.5 12 23.5C13.7026 23.5 15.1806 22.5535 15.9428 21.1698C16.4336 20.2787 16.437 19.3728 16.437 19H19.6623C20.4011 19 21 18.4011 21 17.6623V16.7893C21 16.2839 20.7992 15.7992 20.4419 15.4419C19.5187 14.5187 19 13.2665 19 11.9609V9C19 5.13401 15.866 2 12 2ZM13.937 19C13.937 19.332 13.9132 19.6728 13.753 19.9636C13.4127 20.5814 12.7552 21 12 21C11.2448 21 10.5873 20.5814 10.247 19.9636C10.0868 19.6728 10.063 19.332 10.063 19H13.937Z" fill="white"/>
</svg>
