<svg width="24" height="24" viewBox="0 0 24 24" fill="none" xmlns="http://www.w3.org/2000/svg">
<g clip-path="url(#clip0_270_466)">
<path d="M12.0886 0C18.6753 0.047625 24 5.40159 24 11.9994C24 18.6268 18.6274 23.9994 12 23.9994C5.37262 23.9994 0 18.6268 0 11.9994C0 5.40159 5.32472 0.0477187 11.9113 0C8.22422 0.0474375 5.25 3.051 5.25 6.74944C5.25 10.4774 8.27213 13.4994 12 13.4994C15.7279 13.4994 18.75 10.4774 18.75 6.74944C18.75 3.05109 15.7757 0.0474375 12.0886 0ZM12 4.49944C13.2427 4.49944 14.25 5.50678 14.25 6.74944C14.25 7.99209 13.2427 8.99944 12 8.99944C10.7573 8.99944 9.75 7.99209 9.75 6.74944C9.75 5.50678 10.7573 4.49944 12 4.49944Z" fill="#1A1A1A"/>
</g>
<defs>
<clipPath id="clip0_270_466">
<rect width="24" height="24" fill="white"/>
</clipPath>
</defs>
</svg>
