<svg width="176" height="28" viewBox="0 0 176 28" fill="none" xmlns="http://www.w3.org/2000/svg">
<path d="M22.5539 2C28.9666 2 34.165 7.10395 34.165 13.4V26C31.465 26 29.2762 23.851 29.2762 21.2V13.4C29.2762 9.75494 26.2665 6.8 22.5539 6.8H19.3754C17.7547 6.80002 16.2001 7.43203 15.0541 8.55722L6.77007 16.6912C6.31168 17.1412 6.05396 17.7516 6.05392 18.3881V18.8C6.05392 20.1255 7.14833 21.2 8.4984 21.2H19.4984C19.4984 23.7681 17.4443 25.8649 14.8613 25.9936L14.6095 26H8.4984C4.44829 26 1.16504 22.7764 1.16504 18.8V18.3881C1.16508 16.4786 1.93765 14.6471 3.31288 13.2969L11.5975 5.16348C13.6604 3.13811 16.458 2.00003 19.3754 2H22.5539Z" fill="#FF500B"/>
<path d="M23.7762 9.2C25.4637 9.2 26.8317 10.5432 26.8317 12.2V26C24.1316 26 21.9428 23.851 21.9428 21.2V14H19.8994L15.9055 17.9213C15.3324 18.4839 14.5552 18.8 13.7448 18.8H8.7902C8.53427 18.8 8.40612 18.4962 8.58707 18.3186L16.9799 10.0789C17.5529 9.51632 18.3299 9.2 19.1403 9.2H23.7762Z" fill="#FF500B"/>
<path d="M169.45 20V12.3035C169.45 12.0817 169.245 11.8821 169.017 11.8821H168.721C168.538 11.8821 168.379 11.993 168.31 12.1483L165.551 18.4917C165.163 19.4233 164.228 20 163.202 20C162.176 20 161.264 19.4233 160.876 18.4917L158.094 12.1483C158.048 11.993 157.889 11.8821 157.706 11.8821H157.41C157.182 11.8821 156.977 12.0817 156.977 12.3035V20H154.4V12.3035C154.4 10.6844 155.745 9.35358 157.41 9.35358H157.706C158.915 9.35358 160.009 10.0633 160.488 11.1723L163.202 17.4271L165.916 11.1723C166.394 10.0633 167.489 9.35358 168.721 9.35358H169.017C170.682 9.35358 172.027 10.6844 172.027 12.3035V20H169.45Z" fill="#A62F00"/>
<path d="M142.639 20C140.016 20 137.895 17.9372 137.895 15.3865V9.35358H140.472V15.3865C140.472 16.5399 141.453 17.4936 142.639 17.4936H148.112C149.297 17.4936 150.278 16.5399 150.278 15.3865V9.35358H152.855V15.3865C152.855 17.9372 150.734 20 148.112 20H142.639Z" fill="#A62F00"/>
<path d="M133.148 17.4936C133.581 17.4936 133.946 17.1387 133.946 16.7173C133.946 16.2959 133.604 15.9632 133.193 15.9411H127.105C125.234 15.9411 123.73 14.4772 123.73 12.6584C123.73 10.8396 125.234 9.35358 127.105 9.35358H136.546V11.8821H127.105C126.671 11.8821 126.306 12.237 126.306 12.6584C126.306 13.0798 126.671 13.4347 127.105 13.4347H133.239C135.063 13.479 136.546 14.9207 136.546 16.7173C136.546 18.5361 135.018 20 133.148 20H123.73V17.4936H133.148Z" fill="#A62F00"/>
<path d="M109.259 20V12.3035C109.259 10.6844 110.605 9.35358 112.269 9.35358H118.905C121.049 9.35358 122.782 11.0614 122.782 13.1464C122.782 15.2313 121.049 16.9392 118.905 16.9392H111.836V20H109.259ZM111.836 12.3035V14.4106H118.905C119.612 14.4106 120.205 13.8339 120.205 13.1464C120.205 12.4588 119.612 11.8821 118.905 11.8821H112.269C112.041 11.8821 111.836 12.0817 111.836 12.3035Z" fill="#A62F00"/>
<path d="M104.919 9.35358H107.496V20H104.919V9.35358Z" fill="#A62F00"/>
<path d="M98.0921 17.4936C99.6884 17.4936 100.988 16.2294 100.988 14.6768C100.988 13.1464 99.6884 11.8821 98.0921 11.8821H94.0786C92.4822 11.8821 91.1825 13.1464 91.1825 14.6768C91.1825 16.2294 92.4822 17.4936 94.0786 17.4936H98.0921ZM98.0921 9.35358C101.125 9.35358 103.565 11.749 103.565 14.6768C103.565 17.6267 101.125 20 98.0921 20H94.0786C91.0455 20 88.6056 17.6267 88.6056 14.6768C88.6056 11.749 91.0455 9.35358 94.0786 9.35358H98.0921Z" fill="#A62F00"/>
<path d="M78.5789 20C75.5459 20 73.1059 17.6267 73.1059 14.6768C73.1059 11.749 75.5459 9.35358 78.5789 9.35358H86.4917V11.8821H78.5789C76.9826 11.8821 75.6828 13.1464 75.6828 14.6768C75.6828 16.2294 76.9826 17.4936 78.5789 17.4936H84.3938C84.8273 17.4936 85.192 17.1387 85.192 16.7173C85.192 16.2959 84.8273 15.9411 84.3938 15.9411H78.1454V13.4347H84.3938C86.264 13.4347 87.7915 14.8986 87.7915 16.7173C87.7915 18.5361 86.264 20 84.3938 20H78.5789Z" fill="#A62F00"/>
<path d="M66.7808 17.4936C68.3771 17.4936 69.6769 16.2294 69.6769 14.6768C69.6769 13.1464 68.3771 11.8821 66.7808 11.8821H62.7673C61.1712 11.8821 59.8714 13.1464 59.8714 14.6768C59.8714 16.2294 61.1712 17.4936 62.7673 17.4936H66.7808ZM66.7808 9.35358C69.8138 9.35358 72.2538 11.749 72.2538 14.6768C72.2538 17.6267 69.8138 20 66.7808 20H62.7673C59.7345 20 57.2945 17.6267 57.2945 14.6768C57.2945 11.749 59.7345 9.35358 62.7673 9.35358H66.7808Z" fill="#A62F00"/>
<path d="M46.7419 17.0722C46.7419 17.294 46.9471 17.4936 47.1752 17.4936H56.8213V19.9999H47.1752C45.5105 19.9999 44.165 18.6914 44.165 17.0722V9.28699H46.7419V17.0722Z" fill="#A62F00"/>
<path d="M175.165 9.28699C175.165 9.9978 174.573 10.574 173.842 10.574C173.111 10.574 172.519 9.9978 172.519 9.28699C172.519 8.57624 173.111 8 173.842 8C174.573 8 175.165 8.57624 175.165 9.28699Z" fill="#A62F00"/>
</svg>
