<svg width="24" height="24" viewBox="0 0 24 24" fill="none" xmlns="http://www.w3.org/2000/svg">
<path d="M15.1788 8.24988H17.9821L12.9999 13.2321L9.88382 10.116C9.6494 9.88158 9.33146 9.74988 8.99994 9.74988C8.66842 9.74988 8.35047 9.88158 8.11605 10.116L1.99991 16.2322C1.51175 16.7203 1.51175 17.5118 1.9999 17.9999C2.48806 18.4881 3.27951 18.4881 3.76767 17.9999L8.99993 12.7677L12.116 15.8838C12.3504 16.1182 12.6684 16.2499 12.9999 16.2499C13.3314 16.2499 13.6494 16.1182 13.8838 15.8838L19.7499 10.0176V12.8209C19.7499 13.5113 20.3096 14.0709 20.9999 14.0709C21.6903 14.0709 22.2499 13.5113 22.2499 12.8209V6.99988C22.2499 6.30952 21.6903 5.74988 20.9999 5.74988H15.1788C14.4885 5.74988 13.9288 6.30952 13.9288 6.99988C13.9288 7.69023 14.4885 8.24988 15.1788 8.24988Z" fill="#F5284B"/>
</svg>
