<svg width="24" height="24" viewBox="0 0 24 24" fill="none" xmlns="http://www.w3.org/2000/svg">
<path d="M16.3795 9.18486C17.6817 10.119 19.2769 10.6687 20.9999 10.6687V7.34139C20.6738 7.34146 20.3486 7.30734 20.0296 7.23951V9.85856C18.3068 9.85856 16.7117 9.30891 15.4092 8.37481V15.1648C15.4092 18.5615 12.6654 21.3149 9.28095 21.3149C8.01814 21.3149 6.84441 20.9318 5.86938 20.2747C6.98221 21.4166 8.53413 22.125 10.2511 22.125C13.6357 22.125 16.3796 19.3716 16.3796 15.9747V9.18486H16.3795ZM17.5765 5.82804C16.911 5.09839 16.474 4.15547 16.3795 3.11302V2.68506H15.46C15.6914 4.01001 16.4809 5.14197 17.5765 5.82804ZM8.01004 17.6682C7.63822 17.1789 7.43729 16.5804 7.43819 15.965C7.43819 14.4115 8.69319 13.1519 10.2415 13.1519C10.5301 13.1518 10.8169 13.1961 11.0919 13.2837V9.88205C10.7705 9.83785 10.4462 9.81908 10.122 9.82596V12.4736C9.84678 12.3861 9.55982 12.3416 9.27119 12.3419C7.72287 12.3419 6.46795 13.6014 6.46795 15.1551C6.46795 16.2537 7.09524 17.2048 8.01004 17.6682Z" fill="#FF004F"/>
<path d="M15.4092 8.37474C16.7118 9.30884 18.3068 9.85849 20.0296 9.85849V7.23944C19.0679 7.03387 18.2166 6.52954 17.5765 5.82804C16.4809 5.1419 15.6915 4.00994 15.46 2.68506H13.0447V15.9746C13.0393 17.5239 11.7864 18.7784 10.2414 18.7784C9.33096 18.7784 8.52213 18.3428 8.00987 17.6682C7.09514 17.2048 6.46785 16.2536 6.46785 15.1552C6.46785 13.6016 7.72277 12.3419 9.27109 12.3419C9.56775 12.3419 9.85367 12.3883 10.1219 12.4737V9.82604C6.79689 9.89498 4.1228 12.6215 4.1228 15.9747C4.1228 17.6486 4.78871 19.166 5.86949 20.2748C6.84451 20.9318 8.01825 21.315 9.28106 21.315C12.6656 21.315 15.4093 18.5615 15.4093 15.1648V8.37474H15.4092Z" fill="black"/>
<path d="M20.0294 7.23937V6.5312C19.1622 6.53252 18.3121 6.28879 17.5763 5.82789C18.2276 6.5435 19.0852 7.03692 20.0294 7.23937ZM15.4598 2.68498C15.4377 2.55836 15.4208 2.4309 15.409 2.30296V1.875H12.0741V15.1647C12.0688 16.7138 10.816 17.9682 9.27088 17.9682C8.81725 17.9682 8.38895 17.8602 8.00966 17.6682C8.52191 18.3428 9.33075 18.7782 10.2412 18.7782C11.7861 18.7782 13.0391 17.5239 13.0445 15.9746V2.68498H15.4598ZM10.1218 9.82596V9.07206C9.84314 9.03384 9.5622 9.01466 9.28092 9.0148C5.89613 9.01473 3.15234 11.7682 3.15234 15.1647C3.15234 17.2941 4.2307 19.1707 5.86935 20.2746C4.78857 19.1659 4.12266 17.6483 4.12266 15.9745C4.12266 12.6214 6.79668 9.8949 10.1218 9.82596Z" fill="#00F2EA"/>
</svg>
