<svg width="102" height="28" viewBox="0 0 102 28" fill="none" xmlns="http://www.w3.org/2000/svg">
<g clip-path="url(#clip0_99_813)">
<path fill-rule="evenodd" clip-rule="evenodd" d="M15.6265 5.97468C14.7066 5.97468 13.7958 6.16354 12.9459 6.53044C12.0961 6.89734 11.3238 7.4351 10.6734 8.11306C10.0229 8.79099 9.50695 9.59582 9.15492 10.4816C8.84184 11.2694 8.66389 12.1074 8.62835 12.9577C8.62022 13.1523 8.5163 13.3305 8.34948 13.4174L6.09202 14.5938C5.9252 14.6808 5.81829 14.8589 5.82642 15.0535C5.86196 15.9037 6.03991 16.7418 6.35299 17.5296C6.70502 18.4154 7.221 19.2202 7.87146 19.8981C8.5219 20.5761 9.29413 21.1138 10.144 21.4807C10.9938 21.8476 11.9047 22.0365 12.8246 22.0365C13.7445 22.0365 14.6554 21.8476 15.5052 21.4807C16.3551 21.1138 17.1273 20.5761 17.7778 19.8981C18.4282 19.2202 18.9442 18.4154 19.2962 17.5296C19.6093 16.7418 19.7873 15.9037 19.8228 15.0535C19.8309 14.8589 19.9348 14.6808 20.1017 14.5938L22.3591 13.4174C22.5259 13.3305 22.6329 13.1523 22.6247 12.9577C22.5892 12.1074 22.4112 11.2694 22.0982 10.4816C21.7461 9.59582 21.2301 8.79099 20.5797 8.11306C19.9292 7.4351 19.157 6.89734 18.3072 6.53044C17.4573 6.16354 16.5464 5.97468 15.6265 5.97468ZM18.8623 11.8786C18.9994 12.2234 19.0846 12.5874 19.1157 12.958C19.1319 13.1521 19.0235 13.3305 18.8567 13.4174L16.5992 14.5938C16.4324 14.6808 16.33 14.8591 16.3137 15.0532C16.2827 15.4238 16.1974 15.7878 16.0604 16.1326C15.8844 16.5755 15.6264 16.9779 15.3012 17.3169C14.9759 17.6559 14.5898 17.9248 14.1649 18.1082C13.74 18.2917 13.2845 18.3861 12.8246 18.3861C12.3647 18.3861 11.9092 18.2917 11.4843 18.1082C11.0594 17.9248 10.6733 17.6559 10.348 17.3169C10.0228 16.9779 9.76483 16.5755 9.5888 16.1326C9.45177 15.7878 9.36651 15.4238 9.33547 15.0532C9.31922 14.8591 9.42761 14.6808 9.59443 14.5938L11.8519 13.4174C12.0187 13.3305 12.1212 13.1521 12.1374 12.958C12.1684 12.5874 12.2537 12.2234 12.3907 11.8786C12.5667 11.4357 12.8247 11.0332 13.15 10.6943C13.4752 10.3553 13.8613 10.0864 14.2862 9.90298C14.7112 9.71951 15.1666 9.62511 15.6265 9.62511C16.0865 9.62511 16.5419 9.71951 16.9668 9.90298C17.3918 10.0864 17.7779 10.3553 18.1031 10.6943C18.4283 11.0332 18.6863 11.4357 18.8623 11.8786Z" fill="#E22935"/>
<path fill-rule="evenodd" clip-rule="evenodd" d="M15.6265 0.134033C13.9707 0.134033 12.3311 0.473947 10.8014 1.13437C9.27164 1.79479 7.88169 2.76279 6.71085 3.98308C5.54004 5.20339 4.6113 6.6521 3.97764 8.24648C3.38292 9.74291 3.0591 11.3402 3.02155 12.9576C3.01702 13.1524 2.91244 13.3305 2.74563 13.4174L0.48815 14.5938C0.321347 14.6808 0.2151 14.8588 0.219621 15.0536C0.257171 16.671 0.580997 18.2683 1.17571 19.7647C1.80936 21.3591 2.73811 22.8078 3.90892 24.0281C5.07976 25.2484 6.46971 26.2165 7.99949 26.8767C9.52924 27.5371 11.1688 27.8773 12.8246 27.8773C14.4804 27.8773 16.12 27.5371 17.6497 26.8767C19.1795 26.2165 20.5695 25.2484 21.7403 24.0281C22.9111 22.8078 23.8399 21.3591 24.4735 19.7647C25.0683 18.2683 25.392 16.671 25.4296 15.0536C25.434 14.8588 25.5387 14.6808 25.7054 14.5938L27.9629 13.4174C28.1298 13.3305 28.236 13.1524 28.2316 12.9576C28.1939 11.3402 27.8702 9.74291 27.2755 8.24648C26.6418 6.6521 25.713 5.20339 24.5422 3.98308C23.3714 2.76279 21.9814 1.79479 20.4517 1.13437C18.9219 0.473949 17.2823 0.134033 15.6265 0.134033ZM21.9258 15.0535C21.932 14.8588 22.0363 14.6808 22.2031 14.5938L24.4606 13.4174C24.6274 13.3305 24.7341 13.1523 24.7277 12.9576C24.691 11.8197 24.4583 10.697 24.0396 9.64345C23.582 8.49193 22.9112 7.44563 22.0656 6.56432C21.22 5.68299 20.2162 4.98389 19.1113 4.50691C18.0065 4.02994 16.8224 3.78444 15.6265 3.78444C14.4307 3.78444 13.2465 4.02994 12.1417 4.50691C11.0369 4.98389 10.033 5.68299 9.18743 6.56432C8.34184 7.44563 7.67107 8.49193 7.21345 9.64345C6.79476 10.697 6.56195 11.8197 6.52538 12.9576C6.51911 13.1523 6.41485 13.3305 6.24804 13.4174L3.99057 14.5938C3.82376 14.6808 3.71719 14.8588 3.72345 15.0535C3.76003 16.1915 3.99283 17.3142 4.41152 18.3678C4.86915 19.5193 5.53991 20.5656 6.38551 21.4469C7.2311 22.3282 8.23497 23.0273 9.33979 23.5043C10.4446 23.9812 11.6287 24.2267 12.8246 24.2267C14.0205 24.2267 15.2046 23.9812 16.3094 23.5043C17.4142 23.0273 18.4181 22.3282 19.2637 21.4469C20.1093 20.5656 20.7801 19.5193 21.2377 18.3678C21.6564 17.3142 21.8892 16.1915 21.9258 15.0535Z" fill="#E22935"/>
<path d="M65.5608 4.45682C65.1874 4.45682 64.8719 4.32196 64.6138 4.05223C64.3557 3.78251 64.2267 3.45499 64.2267 3.06966C64.2267 2.67471 64.3557 2.34479 64.6138 2.07988C64.8719 1.81016 65.1874 1.67529 65.5608 1.67529C65.9341 1.67529 66.2475 1.81016 66.5009 2.07988C66.759 2.34479 66.888 2.67471 66.888 3.06966C66.888 3.45499 66.759 3.78251 66.5009 4.05223C66.2475 4.32196 65.9341 4.45682 65.5608 4.45682Z" fill="#370808"/>
<path d="M64.4616 13.1193V5.34547H66.6462V13.1193H64.4616Z" fill="#370808"/>
<path fill-rule="evenodd" clip-rule="evenodd" d="M67.8785 15.4067V5.34547H69.9522V6.11853H69.9792C70.11 5.984 70.2508 5.86119 70.4015 5.75006C70.8901 5.39364 71.4522 5.21544 72.0883 5.21544C72.646 5.21544 73.1781 5.36715 73.6851 5.67058C74.1966 5.97404 74.6113 6.42437 74.9293 7.02162C75.2473 7.61887 75.4017 8.36303 75.3926 9.25407C75.397 9.92838 75.3073 10.516 75.123 11.0169C74.9386 11.513 74.6897 11.9248 74.3763 12.2524C74.0629 12.5799 73.7127 12.8255 73.3256 12.9893C72.9385 13.1531 72.5467 13.2349 72.1505 13.2349C71.5237 13.2349 70.9614 13.0519 70.4637 12.6858C70.3386 12.5925 70.2198 12.4913 70.1075 12.3824H70.0628V14.1021L67.8785 15.4067ZM71.639 11.3276C71.9615 11.3228 72.2449 11.2337 72.4892 11.0603C72.7335 10.8869 72.9247 10.6412 73.0628 10.3233C73.2012 10.0054 73.2681 9.63459 73.2634 9.21073C73.2681 8.77725 73.199 8.40636 73.0559 8.09811C72.9178 7.78505 72.7219 7.54663 72.4685 7.38287C72.2149 7.21428 71.9246 7.13241 71.5975 7.13722C71.2888 7.13241 71.0123 7.21187 70.7679 7.37563C70.5236 7.53939 70.3302 7.77783 70.1872 8.09089C70.0444 8.39914 69.9731 8.77242 69.9731 9.21073C69.9731 9.63459 70.0444 10.0054 70.1872 10.3233C70.3346 10.6412 70.533 10.8869 70.7817 11.0603C71.0307 11.2337 71.3163 11.3228 71.639 11.3276Z" fill="#370808"/>
<path d="M78.7677 13.2349C78.3253 13.2349 77.9013 13.1554 77.4958 12.9965C77.0949 12.8376 76.74 12.6136 76.4313 12.3246C76.1226 12.0308 75.8898 11.6888 75.7333 11.2987L77.4476 10.5112C77.5626 10.7376 77.7354 10.9519 77.9659 11.1542C78.1962 11.3565 78.4683 11.4576 78.7817 11.4576C78.9476 11.4576 79.0926 11.4287 79.2172 11.3709C79.3416 11.3083 79.4384 11.2288 79.5075 11.1325C79.5812 11.0362 79.6181 10.9326 79.6181 10.8218C79.6181 10.6822 79.565 10.5617 79.4591 10.4606C79.3531 10.3595 79.2172 10.2728 79.0513 10.2005C78.8854 10.1283 78.7102 10.0657 78.5258 10.0127C78.3462 9.95969 78.1803 9.91153 78.0281 9.86817C77.6779 9.7574 77.3461 9.60566 77.0327 9.413C76.724 9.21554 76.4728 8.96508 76.2791 8.66162C76.0857 8.3582 75.9889 7.98973 75.9889 7.55624C75.9889 7.09869 76.1019 6.69649 76.3276 6.3497C76.5581 5.99811 76.869 5.72355 77.2608 5.52609C77.6572 5.3286 78.1087 5.22988 78.6158 5.22988C79.247 5.22988 79.814 5.38159 80.3161 5.68502C80.8232 5.98847 81.1825 6.39065 81.3946 6.89156L79.7149 7.65016C79.6272 7.49603 79.4982 7.34673 79.3278 7.20223C79.1619 7.05774 78.9498 6.98548 78.6917 6.98548C78.4752 6.98548 78.2955 7.04328 78.1525 7.15887C78.0097 7.27447 77.9382 7.41896 77.9382 7.59236C77.9382 7.76575 78.0097 7.90545 78.1525 8.01141C78.2955 8.11737 78.4774 8.20887 78.6986 8.28594C78.9198 8.363 79.1504 8.43768 79.39 8.50991C79.5744 8.56291 79.7887 8.63997 80.0327 8.7411C80.277 8.83743 80.5145 8.96988 80.7448 9.13847C80.9797 9.30704 81.1734 9.52379 81.3256 9.78869C81.4821 10.0536 81.5605 10.3787 81.5605 10.764C81.5605 11.2505 81.4315 11.6816 81.1734 12.0573C80.92 12.4281 80.5813 12.7171 80.1574 12.9243C79.7378 13.1313 79.2747 13.2349 78.7677 13.2349Z" fill="#370808"/>
<path d="M90.4402 13.1193V5.34547H92.521V6.33526H92.5591C92.7215 6.09875 92.9046 5.89887 93.1084 5.7356C93.5233 5.39844 94.0141 5.22988 94.5809 5.22988C95.0511 5.22988 95.4495 5.35028 95.7769 5.5911C96.0293 5.77064 96.235 6.01146 96.394 6.31358H96.4331C96.6686 5.9998 96.9547 5.75417 97.2906 5.57667C97.7284 5.34547 98.2055 5.22988 98.7216 5.22988C99.2146 5.22988 99.6202 5.32138 99.9382 5.50441C100.256 5.68263 100.505 5.91863 100.685 6.21245C100.865 6.50144 100.991 6.81933 101.065 7.16612C101.139 7.50808 101.175 7.84043 101.175 8.16312V13.1193H98.9775V8.44489C98.9775 8.02104 98.8922 7.69593 98.7216 7.46954C98.5557 7.23835 98.3114 7.12276 97.9889 7.12276C97.7768 7.12276 97.5878 7.17333 97.4219 7.27447C97.2607 7.3708 97.1316 7.51771 97.0348 7.7152C96.9426 7.91266 96.8967 8.1559 96.8967 8.44489V13.1193H94.7121V8.44489C94.7121 8.02104 94.6271 7.69593 94.4565 7.46954C94.286 7.23835 94.0394 7.12276 93.7167 7.12276C93.4033 7.12276 93.1431 7.23594 92.9356 7.46233C92.7284 7.68389 92.6247 8.01621 92.6247 8.45933V13.1193H90.4402Z" fill="#370808"/>
<path d="M83.6983 12.8954C84.1179 13.1217 84.5832 13.2349 85.0949 13.2349C85.6985 13.2349 86.2331 13.0808 86.6986 12.7725C86.9341 12.6141 87.1484 12.4335 87.3414 12.2307H87.3969C87.4628 12.3887 87.5594 12.5284 87.6872 12.6497C87.9406 12.8905 88.3414 13.0856 88.8898 13.2349L89.664 11.3276C89.4244 11.2361 89.2653 11.1277 89.1872 11.0025C89.1088 10.8772 89.0697 10.675 89.0697 10.3956V5.34547H86.8852V9.92597C86.8852 10.2102 86.8321 10.4558 86.7262 10.6629C86.6249 10.8652 86.4818 11.0217 86.2975 11.1325C86.1178 11.2433 85.9082 11.2987 85.6685 11.2987C85.3461 11.2987 85.0718 11.1831 84.8459 10.9519C84.6247 10.7159 84.5141 10.3739 84.5141 9.92597V5.34547H82.3298V10.2294C82.3298 10.8845 82.452 11.436 82.696 11.8839C82.945 12.327 83.279 12.6642 83.6983 12.8954Z" fill="#370808"/>
<path fill-rule="evenodd" clip-rule="evenodd" d="M59.7315 13.2349C59.0171 13.2349 58.365 13.0639 57.7751 12.722C57.1899 12.38 56.7222 11.908 56.3719 11.3059C56.0264 10.7038 55.8536 10.0102 55.8536 9.22517C55.8536 8.44007 56.0264 7.74649 56.3719 7.14444C56.7222 6.54236 57.1899 6.07276 57.7751 5.7356C58.365 5.39844 59.0171 5.22988 59.7315 5.22988C60.4596 5.22988 61.1163 5.39844 61.7015 5.7356C62.287 6.07276 62.75 6.54236 63.0909 7.14444C63.4367 7.74649 63.6095 8.44007 63.6095 9.22517C63.6095 10.0102 63.4367 10.7038 63.0909 11.3059C62.75 11.908 62.2845 12.38 61.6946 12.722C61.1094 13.0639 60.4549 13.2349 59.7315 13.2349ZM59.7315 11.2842C60.0724 11.2842 60.3789 11.1975 60.6508 11.0241C60.9229 10.8507 61.1369 10.6099 61.2937 10.3017C61.4503 9.9934 61.5287 9.63456 61.5287 9.22517C61.5287 8.83022 61.4528 8.4786 61.3006 8.17034C61.1485 7.86208 60.9388 7.62126 60.6717 7.44786C60.4043 7.26967 60.0955 7.18055 59.7453 7.18055C59.3997 7.18055 59.0886 7.26725 58.8121 7.44064C58.5402 7.60924 58.3259 7.84765 58.1691 8.1559C58.0125 8.46416 57.9341 8.82058 57.9341 9.22517C57.9341 9.63456 58.0125 9.9934 58.1691 10.3017C58.3306 10.6099 58.5471 10.8507 58.819 11.0241C59.0908 11.1975 59.3951 11.2842 59.7315 11.2842Z" fill="#370808"/>
<path fill-rule="evenodd" clip-rule="evenodd" d="M51.0888 16.2693C50.4712 16.2693 49.9044 16.1898 49.3883 16.0309C48.8768 15.8768 48.4734 15.7178 48.1785 15.5541L48.8974 13.7623C49.1555 13.9261 49.4551 14.0658 49.796 14.1814C50.1416 14.3018 50.4918 14.362 50.8467 14.362C51.151 14.362 51.4666 14.309 51.7937 14.2031C52.1211 14.0971 52.3998 13.9285 52.6301 13.6973C52.8607 13.4709 52.976 13.1723 52.976 12.8014V12.0501H52.9428C52.8076 12.1895 52.6618 12.3172 52.5058 12.433C52.0127 12.7942 51.4504 12.9748 50.8192 12.9748C50.4274 12.9748 50.0381 12.8978 49.651 12.7436C49.2639 12.5847 48.9112 12.3463 48.5931 12.0284C48.2798 11.7057 48.0288 11.3035 47.8398 10.8219C47.6508 10.3402 47.5564 9.77425 47.5564 9.12404C47.5564 8.25706 47.7177 7.537 48.0401 6.96382C48.3675 6.38584 48.7868 5.95235 49.2983 5.66336C49.8098 5.36957 50.3421 5.22266 50.8951 5.22266C51.5357 5.22266 52.0956 5.39364 52.5748 5.73562C52.7287 5.84434 52.8717 5.96476 53.0037 6.09685H53.045V5.33826H55.029V12.6714C55.029 13.2638 54.9321 13.784 54.7387 14.232C54.545 14.6799 54.2707 15.0556 53.9161 15.359C53.5658 15.6624 53.1509 15.8888 52.6717 16.0381C52.1924 16.1923 51.6647 16.2693 51.0888 16.2693ZM51.3582 11.1181C51.69 11.1181 51.9827 11.0314 52.2361 10.858C52.4898 10.6846 52.6901 10.4438 52.8376 10.1355C52.985 9.82242 53.0588 9.46119 53.0588 9.05178C53.0588 8.63756 52.9875 8.28355 52.8445 7.98975C52.7017 7.69113 52.5058 7.46233 52.257 7.30339C52.0081 7.14444 51.72 7.06498 51.3929 7.06498C51.0657 7.06498 50.773 7.14685 50.5149 7.31061C50.2569 7.46957 50.0541 7.69835 49.9066 7.99697C49.7638 8.2956 49.6923 8.64719 49.6923 9.05178C49.6923 9.45636 49.7638 9.8152 49.9066 10.1283C50.0494 10.4365 50.2453 10.6798 50.4943 10.858C50.743 11.0314 51.0311 11.1181 51.3582 11.1181Z" fill="#370808"/>
<path fill-rule="evenodd" clip-rule="evenodd" d="M43.1235 13.2349C42.409 13.2349 41.7569 13.0639 41.1671 12.722C40.5818 12.38 40.1141 11.908 39.7639 11.3059C39.4183 10.7038 39.2455 10.0102 39.2455 9.22517C39.2455 8.44007 39.4183 7.74649 39.7639 7.14444C40.1141 6.54236 40.5818 6.07276 41.1671 5.7356C41.7569 5.39844 42.409 5.22988 43.1235 5.22988C43.8515 5.22988 44.5082 5.39844 45.0934 5.7356C45.6789 6.07276 46.1419 6.54236 46.4829 7.14444C46.8287 7.74649 47.0015 8.44007 47.0015 9.22517C47.0015 10.0102 46.8287 10.7038 46.4829 11.3059C46.1419 11.908 45.6764 12.38 45.0866 12.722C44.5013 13.0639 43.8468 13.2349 43.1235 13.2349ZM43.1235 11.2842C43.4644 11.2842 43.7709 11.1975 44.0427 11.0241C44.3148 10.8507 44.5289 10.6099 44.6857 10.3017C44.8422 9.9934 44.9207 9.63456 44.9207 9.22517C44.9207 8.83022 44.8447 8.4786 44.6926 8.17034C44.5404 7.86208 44.3308 7.62126 44.0636 7.44786C43.7962 7.26967 43.4875 7.18055 43.1373 7.18055C42.7917 7.18055 42.4805 7.26725 42.204 7.44064C41.9322 7.60924 41.7179 7.84765 41.561 8.1559C41.4045 8.46416 41.3261 8.82058 41.3261 9.22517C41.3261 9.63456 41.4045 9.9934 41.561 10.3017C41.7225 10.6099 41.9391 10.8507 42.2109 11.0241C42.4827 11.1975 42.787 11.2842 43.1235 11.2842Z" fill="#370808"/>
<path d="M33.3401 13.1193V2.47002H35.6074V11.0097H39.278V13.1193H33.3401Z" fill="#370808"/>
<path d="M83.9578 17.1531C84.2158 17.4228 84.5317 17.5577 84.905 17.5577C85.2781 17.5577 85.5915 17.4228 85.8451 17.1531C86.1032 16.8833 86.2322 16.5558 86.2322 16.1705C86.2322 15.7755 86.1032 15.4456 85.8451 15.1807C85.5915 14.911 85.2781 14.7761 84.905 14.7761C84.5317 14.7761 84.2158 14.911 83.9578 15.1807C83.6997 15.4456 83.5707 15.7755 83.5707 16.1705C83.5707 16.5558 83.6997 16.8833 83.9578 17.1531Z" fill="#AAAAAA"/>
<path fill-rule="evenodd" clip-rule="evenodd" d="M67.8813 16.9461V19.0821H67.8191C67.7289 19.0001 67.6346 18.923 67.5355 18.8509C67.0518 18.4945 66.4941 18.3163 65.8627 18.3163C65.305 18.3163 64.7705 18.468 64.259 18.7714C63.7475 19.0749 63.3326 19.5252 63.0148 20.1225C62.6968 20.7197 62.5446 21.4639 62.5584 22.3549C62.5493 23.0292 62.6368 23.6168 62.8211 24.1177C63.0055 24.6139 63.2545 25.0257 63.5678 25.3532C63.8812 25.6807 64.2315 25.9264 64.6186 26.09C65.0057 26.2539 65.3972 26.3359 65.7937 26.3359C66.4204 26.3359 66.9825 26.1527 67.4802 25.7866C67.7297 25.6008 67.9531 25.384 68.1505 25.1365H68.2185C68.2704 25.276 68.3491 25.4084 68.455 25.5338C68.5978 25.6926 68.7868 25.8396 69.0218 25.9744C69.2614 26.1047 69.5519 26.2249 69.8928 26.3359L70.6602 24.4284C70.448 24.3465 70.2962 24.2478 70.204 24.1322C70.1118 24.0166 70.0656 23.8167 70.0656 23.5325V15.6415L67.8813 16.9461ZM67.1624 24.1611C66.9134 24.3345 66.6278 24.4236 66.3051 24.4284C65.9871 24.4236 65.7037 24.3345 65.455 24.1611C65.206 23.9877 65.0126 23.7421 64.8742 23.4242C64.7407 23.1063 64.6761 22.7354 64.6807 22.3116C64.6761 21.8781 64.7451 21.5072 64.8882 21.1989C65.031 20.8859 65.2269 20.6475 65.4756 20.4837C65.729 20.3151 66.0195 20.2332 66.3467 20.2381C66.6554 20.2332 66.9319 20.3127 67.1762 20.4765C67.4205 20.6402 67.6139 20.8787 67.7567 21.1917C67.8998 21.5 67.9735 21.8733 67.9779 22.3116C67.9735 22.7354 67.8998 23.1063 67.7567 23.4242C67.6139 23.7421 67.4158 23.9877 67.1624 24.1611Z" fill="#AAAAAA"/>
<path d="M94.9981 26.2203V18.4463H97.1136V19.465H97.1467C97.2052 19.373 97.2704 19.2863 97.3416 19.2049C97.5997 18.9159 97.9084 18.6992 98.268 18.5547C98.6273 18.4054 99.0122 18.3307 99.4222 18.3307C99.9199 18.3307 100.349 18.4511 100.708 18.6919C101.067 18.9328 101.344 19.2627 101.538 19.6817C101.731 20.1008 101.828 20.5848 101.828 21.1339V26.2203H99.6434V21.6324C99.6434 21.1652 99.5375 20.816 99.3256 20.5848C99.1135 20.3488 98.8254 20.2308 98.4614 20.2308C98.2218 20.2308 98.0053 20.2862 97.8116 20.397C97.6181 20.5029 97.4638 20.6619 97.3485 20.8738C97.2379 21.0809 97.1826 21.341 97.1826 21.6541V26.2203H94.9981Z" fill="#AAAAAA"/>
<path fill-rule="evenodd" clip-rule="evenodd" d="M90.5081 26.3359C89.7936 26.3359 89.1416 26.1648 88.5517 25.8229C87.9665 25.4808 87.4988 25.0088 87.1485 24.4067C86.803 23.8047 86.6299 23.1111 86.6299 22.326C86.6299 21.5409 86.803 20.8473 87.1485 20.2453C87.4988 19.6432 87.9665 19.1736 88.5517 18.8364C89.1416 18.4993 89.7936 18.3307 90.5081 18.3307C91.2361 18.3307 91.8929 18.4993 92.4781 18.8364C93.0633 19.1736 93.5266 19.6432 93.8675 20.2453C94.2133 20.8473 94.3861 21.5409 94.3861 22.326C94.3861 23.1111 94.2133 23.8047 93.8675 24.4067C93.5266 25.0088 93.0611 25.4808 92.4712 25.8229C91.886 26.1648 91.2315 26.3359 90.5081 26.3359ZM90.5081 24.3851C90.849 24.3851 91.1555 24.2984 91.4274 24.125C91.6992 23.9516 91.9135 23.7107 92.0703 23.4025C92.2269 23.0942 92.3053 22.7354 92.3053 22.326C92.3053 21.931 92.2293 21.5795 92.0772 21.2712C91.9251 20.9629 91.7154 20.7221 91.4482 20.5487C91.1808 20.3705 90.8721 20.2814 90.5219 20.2814C90.1763 20.2814 89.8652 20.3681 89.5887 20.5415C89.3168 20.7101 89.1025 20.9485 88.9457 21.2567C88.7891 21.565 88.7107 21.9214 88.7107 22.326C88.7107 22.7354 88.7891 23.0942 88.9457 23.4025C89.1072 23.7107 89.3237 23.9516 89.5955 24.125C89.8674 24.2984 90.1716 24.3851 90.5081 24.3851Z" fill="#AAAAAA"/>
<path d="M83.8059 26.2203V18.4463H85.9901V26.2203H83.8059Z" fill="#AAAAAA"/>
<path d="M79.7925 25.541C80.2396 26.0708 80.9216 26.3359 81.8386 26.3359C82.1198 26.3359 82.3963 26.3091 82.6681 26.2562C82.9446 26.2033 83.1867 26.1239 83.3942 26.0178L82.689 24.2189C82.6106 24.2622 82.5207 24.2984 82.4194 24.3273C82.3179 24.3562 82.2144 24.3706 82.1082 24.3706C81.8826 24.3706 81.6912 24.2984 81.5346 24.1539C81.3825 24.0046 81.3065 23.7637 81.3065 23.4314V20.3392H83.0277V18.4463H81.3065V16.2066H79.122V18.4463H77.8778V20.3392H79.122V23.4892C79.122 24.3225 79.3456 25.0064 79.7925 25.541Z" fill="#AAAAAA"/>
<path fill-rule="evenodd" clip-rule="evenodd" d="M72.1641 26.0178C72.5465 26.2298 72.989 26.3359 73.4913 26.3359C74.0719 26.3359 74.5836 26.2154 75.026 25.9744C75.3836 25.7818 75.6454 25.5675 75.8113 25.3315H75.845C75.9096 25.4471 75.9959 25.5627 76.1043 25.6783C76.3208 25.9094 76.6435 26.0998 77.0721 26.249L77.3278 26.3359L78.0951 24.4284L77.9292 24.3706C77.768 24.3176 77.6549 24.2237 77.5905 24.0888C77.5305 23.9492 77.5006 23.7469 77.5006 23.482V21.1411C77.5006 20.8618 77.4684 20.5607 77.404 20.2381C77.344 19.9105 77.2149 19.6047 77.0168 19.3205C76.8185 19.0315 76.5145 18.7955 76.1043 18.6125C75.694 18.4246 75.141 18.3307 74.4452 18.3307C73.9981 18.3307 73.5788 18.3692 73.1871 18.4463C72.7999 18.5185 72.4544 18.6101 72.1503 18.7208C71.8507 18.8316 71.6086 18.9424 71.4243 19.0532L72.1503 20.7727C72.3207 20.6571 72.5234 20.5559 72.7587 20.4692C72.9936 20.3777 73.2379 20.3079 73.4913 20.2597C73.7447 20.2067 73.9822 20.1803 74.2034 20.1803C74.3968 20.1803 74.5696 20.2043 74.7217 20.2525C74.8739 20.2958 75.0029 20.3609 75.1088 20.4476C75.2148 20.5343 75.2932 20.6402 75.3438 20.7655C75.3991 20.8859 75.4269 21.0207 75.4269 21.17V21.5602H74.0235C73.3783 21.5602 72.8253 21.6637 72.3644 21.8708C71.9082 22.078 71.558 22.3621 71.3137 22.7234C71.0741 23.0846 70.9544 23.4988 70.9544 23.966C70.9544 24.4092 71.0603 24.8089 71.2724 25.1653C71.4889 25.5218 71.7861 25.8059 72.1641 26.0178ZM74.2862 22.9907H75.5306V23.4747C75.5306 23.7589 75.4429 23.9853 75.2679 24.1539C75.0973 24.3225 74.8945 24.4429 74.6595 24.5151C74.4246 24.5873 74.2193 24.6235 74.0443 24.6235C73.8553 24.6235 73.6848 24.5922 73.5329 24.5296C73.3854 24.4621 73.2701 24.3706 73.1871 24.255C73.1042 24.1346 73.0627 23.9901 73.0627 23.8215C73.0627 23.5373 73.1664 23.3278 73.3739 23.193C73.5857 23.0581 73.89 22.9907 74.2862 22.9907Z" fill="#AAAAAA"/>
<path d="M55.2272 26.2203V18.4463H57.3424V19.465H57.3758C57.4343 19.373 57.4992 19.2863 57.5707 19.2049C57.8288 18.9159 58.1375 18.6992 58.4968 18.5547C58.8564 18.4054 59.2411 18.3307 59.6513 18.3307C60.149 18.3307 60.5776 18.4511 60.937 18.6919C61.2966 18.9328 61.5731 19.2627 61.7665 19.6817C61.9602 20.1008 62.057 20.5848 62.057 21.1339V26.2203H59.8725V21.6324C59.8725 21.1652 59.7666 20.816 59.5544 20.5848C59.3426 20.3488 59.0545 20.2308 58.6905 20.2308C58.4509 20.2308 58.2343 20.2862 58.0407 20.397C57.8472 20.5029 57.6926 20.6619 57.5776 20.8738C57.467 21.0809 57.4117 21.341 57.4117 21.6541V26.2203H55.2272Z" fill="#AAAAAA"/>
<path d="M50.0874 26.3359C49.5757 26.3359 49.1104 26.2226 48.6908 25.9963C48.2715 25.7651 47.9375 25.4278 47.6885 24.9847C47.4442 24.5368 47.3223 23.9853 47.3223 23.3303V18.4463H49.5066V23.0268C49.5066 23.4747 49.6172 23.8167 49.8384 24.0527C50.0643 24.2839 50.3383 24.3995 50.661 24.3995C50.9007 24.3995 51.1103 24.3441 51.29 24.2333C51.4743 24.1226 51.6174 23.966 51.7186 23.7637C51.8246 23.5566 51.8777 23.311 51.8777 23.0268V18.4463H54.0619V23.4964C54.0619 23.7758 54.1013 23.9781 54.1797 24.1033C54.2578 24.2285 54.4168 24.3369 54.6565 24.4284L53.8823 26.3359C53.3339 26.1864 52.933 25.9914 52.6794 25.7504C52.5518 25.6292 52.455 25.4895 52.3894 25.3315H52.3338C52.1409 25.5343 51.9266 25.715 51.6911 25.8735C51.2256 26.1817 50.691 26.3359 50.0874 26.3359Z" fill="#AAAAAA"/>
<path fill-rule="evenodd" clip-rule="evenodd" d="M42.8805 26.3359C42.166 26.3359 41.514 26.1648 40.9241 25.8229C40.3389 25.4808 39.8712 25.0088 39.5209 24.4067C39.1753 23.8047 39.0023 23.1111 39.0023 22.326C39.0023 21.5409 39.1753 20.8473 39.5209 20.2453C39.8712 19.6432 40.3389 19.1736 40.9241 18.8364C41.514 18.4993 42.166 18.3307 42.8805 18.3307C43.6085 18.3307 44.2653 18.4993 44.8505 18.8364C45.4357 19.1736 45.899 19.6432 46.2399 20.2453C46.5857 20.8473 46.7585 21.5409 46.7585 22.326C46.7585 23.1111 46.5857 23.8047 46.2399 24.4067C45.899 25.0088 45.4335 25.4808 44.8436 25.8229C44.2584 26.1648 43.6039 26.3359 42.8805 26.3359ZM42.8805 24.3851C43.2214 24.3851 43.5279 24.2984 43.7997 24.125C44.0716 23.9516 44.2859 23.7107 44.4427 23.4025C44.5993 23.0942 44.6777 22.7354 44.6777 22.326C44.6777 21.931 44.6017 21.5795 44.4496 21.2712C44.2975 20.9629 44.0878 20.7221 43.8206 20.5487C43.5532 20.3705 43.2445 20.2814 42.8943 20.2814C42.5487 20.2814 42.2375 20.3681 41.961 20.5415C41.6892 20.7101 41.4749 20.9485 41.3181 21.2567C41.1615 21.565 41.0831 21.9214 41.0831 22.326C41.0831 22.7354 41.1615 23.0942 41.3181 23.4025C41.4796 23.7107 41.6961 23.9516 41.9679 24.125C42.2398 24.2984 42.544 24.3851 42.8805 24.3851Z" fill="#AAAAAA"/>
<path d="M33.3232 26.2203V15.5709H39.2611V17.6805H35.5906V20.1297H38.6459V22.2393H35.5906V26.2203H33.3232Z" fill="#AAAAAA"/>
<path d="M28.2317 12.978H24.728C24.7266 13.1647 24.6216 13.3334 24.4608 13.4173L22.2033 14.5938C22.0423 14.6777 21.9396 14.8464 21.9269 15.0331H25.4305C25.4418 14.8464 25.5448 14.6777 25.7058 14.5938L27.9633 13.4173C28.124 13.3335 28.2287 13.1647 28.2317 12.978Z" fill="#FF6670"/>
<path d="M0.219727 15.0331H3.72339C3.72491 14.8464 3.82979 14.6777 3.99073 14.5938L6.24822 13.4173C6.40918 13.3334 6.5119 13.1647 6.52453 12.978H3.02087C3.00978 13.1647 2.90675 13.3335 2.74581 13.4173L0.488323 14.5938C0.327377 14.6777 0.22281 14.8464 0.219727 15.0331Z" fill="#FF6670"/>
<path d="M8.62733 12.978C8.61305 13.1646 8.51063 13.3334 8.34967 13.4173L6.09217 14.5938C5.93121 14.6777 5.82601 14.8465 5.82616 15.0331H9.3344C9.32695 14.8469 9.43355 14.6777 9.59458 14.5938L11.8521 13.4173C12.0131 13.3334 12.1142 13.1642 12.1356 12.978H8.62733Z" fill="#FF6670"/>
<path d="M19.1171 12.978C19.1245 13.1642 19.0179 13.3334 18.8569 13.4173L16.5994 14.5938C16.4384 14.6777 16.3373 14.8469 16.3159 15.0331H19.8242C19.8385 14.8465 19.9408 14.6777 20.1018 14.5938L22.3593 13.4173C22.5203 13.3334 22.6255 13.1646 22.6253 12.978H19.1171Z" fill="#FF6670"/>
</g>
<defs>
<clipPath id="clip0_99_813">
<rect width="102" height="28" fill="white"/>
</clipPath>
</defs>
</svg>
