<svg width="200" height="200" viewBox="0 0 200 200" fill="none" xmlns="http://www.w3.org/2000/svg">
<path fill-rule="evenodd" clip-rule="evenodd" d="M51.6548 95.1174C47.1948 89.7435 43.3226 83.9025 40.1051 77.6951C40.0734 77.6859 40.0412 77.6782 40.0087 77.6723C36.5871 71.0877 33.8566 64.1625 31.8615 57.0089C30.6444 52.7313 29.7003 48.3799 29.0348 43.9812C29.0045 43.7727 28.9737 43.5642 28.943 43.3559C28.8122 42.4704 28.6815 41.5863 28.5934 40.7L28.5779 40.5669C28.4558 39.5181 28.3341 38.472 28.239 37.4268L28.0772 35.7956C28.047 35.4514 28.0256 35.1071 28.0041 34.7632C27.9917 34.5647 27.9794 34.3662 27.9653 34.168L27.8579 32.5456L27.8033 30.9297C27.4971 27.8886 27.1939 26.2373 26.9378 26.0239C26.8206 25.9177 26.6399 26.1651 26.5214 26.7767C26.3 27.7347 26.1348 28.7049 26.0267 29.6824L26.0019 29.915C25.8556 31.2861 25.7066 32.6829 25.643 34.1038C25.5478 35.3868 25.5291 36.6868 25.5101 38.0051C25.5069 38.2303 25.5036 38.4561 25.5 38.6824C25.5247 41.8646 25.7387 45.0424 26.1409 48.1989C26.5707 51.5031 27.1914 54.7793 28 58.0109C28.8555 61.3599 29.8913 64.6597 31.1027 67.8957C37.3292 84.3378 47.7835 99.2206 61.4671 110.317C64.8885 113.096 68.5067 115.62 72.293 117.87C75.9145 119.996 79.7974 121.842 83.9686 122.953C85.2082 124.654 86.4992 126.318 87.8398 127.942C90.2701 130.914 92.8483 133.76 95.5646 136.47C98.2741 139.18 101.081 141.796 104.039 144.225C104.302 144.443 104.564 144.663 104.826 144.883C105.296 145.277 105.769 145.674 106.245 146.061L108.513 147.82C109.658 148.737 110.851 149.59 112.043 150.443C112.407 150.703 112.77 150.963 113.132 151.225C113.185 151.262 113.238 151.299 113.29 151.337C113.376 151.398 113.461 151.46 113.546 151.521C113.796 151.702 114.046 151.883 114.302 152.056L117.887 154.436C118.402 154.776 118.93 155.094 119.459 155.411C119.748 155.585 120.043 155.763 120.33 155.94C120.623 156.117 120.915 156.295 121.208 156.473C121.73 156.792 122.257 157.114 122.785 157.423C129.414 161.253 136.343 164.532 143.502 167.229C149.77 169.593 156.223 171.427 162.794 172.712L164.591 173.063L166.261 173.315C167.329 173.471 168.297 173.606 169.167 173.719C170.912 173.903 172.258 173.974 173.159 173.997C174.961 174.031 174.992 173.784 172.978 173.24C172.256 173.041 171.414 172.843 170.446 172.615C169.563 172.407 168.569 172.173 167.469 171.892C167.041 171.785 166.595 171.683 166.131 171.576C165.34 171.395 164.496 171.201 163.605 170.955L161.372 170.388L160.174 170.092L158.93 169.742C151.764 167.776 144.76 165.255 137.98 162.204C132.366 159.682 126.93 156.774 121.713 153.501C116.493 150.246 111.501 146.635 106.771 142.695C102.046 138.762 97.6237 134.475 93.5423 129.87C91.825 127.916 90.179 125.902 88.6073 123.83C91.8029 124.187 95.0424 124.047 98.2106 123.407C102.673 122.498 106.924 120.747 110.738 118.247C112.872 116.853 114.863 115.249 116.68 113.458C117.591 112.562 118.457 111.62 119.273 110.635C120.085 109.643 120.844 108.608 121.548 107.535C122.974 105.389 124.134 103.075 125.001 100.644C125.074 100.438 125.149 100.231 125.224 100.025C125.369 99.6263 125.513 99.2276 125.642 98.8241L126.144 96.9621C126.172 96.8543 126.201 96.7468 126.23 96.6392C126.285 96.4364 126.34 96.2336 126.387 96.0291L126.564 95.0823L126.912 93.1873L127.116 91.2741L127.216 90.3171L127.25 89.357L127.308 87.436C127.301 87.0121 127.283 86.5883 127.264 86.1646C127.255 85.9491 127.245 85.7336 127.237 85.5181L127.196 84.5591C127.189 84.3519 127.164 84.1453 127.139 83.9398C127.126 83.8287 127.113 83.7167 127.102 83.6053L126.881 81.7008C126.826 81.2881 126.746 80.8795 126.666 80.471C126.624 80.2529 126.581 80.0348 126.543 79.8161C126.51 79.6546 126.48 79.4927 126.45 79.3308C126.364 78.8651 126.277 78.3994 126.144 77.9447C124.954 72.974 122.898 68.2542 120.073 64.0036C118.185 61.1192 115.92 58.5032 113.339 56.226C110.729 53.9512 107.816 52.0558 104.683 50.5952C101.519 49.1055 98.1237 48.1742 94.6459 47.8418C92.8837 47.6744 91.1088 47.6939 89.3506 47.9001C89.0487 47.9457 88.7474 47.9997 88.4463 48.0537C88.309 48.0784 88.1715 48.103 88.0341 48.1268C87.5934 48.1921 87.1569 48.2836 86.727 48.4008C85.8595 48.6128 85.0067 48.8817 84.1742 49.2057L82.9273 49.6969L81.7247 50.2884C80.937 50.7037 80.1744 51.1656 79.4409 51.6717C77.985 52.6752 76.6378 53.8298 75.4216 55.1163C73.0472 57.6815 71.1421 60.6486 69.7943 63.8808C68.4773 67.0767 67.6477 70.4543 67.3334 73.8994C67.02 77.2845 67.0712 80.6936 67.4862 84.0676C67.7353 86.188 68.0945 88.2938 68.5624 90.3765L68.9381 91.9494L69.37 93.5115C69.4442 93.7721 69.5163 94.0335 69.5885 94.2951C69.8047 95.0783 70.0213 95.8632 70.2947 96.6311C70.4135 96.9785 70.5287 97.3278 70.6438 97.6769C70.8692 98.3604 71.0948 99.0448 71.3488 99.7179L72.5281 102.756C72.8047 103.407 73.0908 104.053 73.3764 104.698C73.5282 105.041 73.6799 105.384 73.8298 105.726L74.1568 106.465L75.2219 108.627C76.7956 111.795 78.5463 114.87 80.4655 117.838C78.9372 117.215 77.4484 116.493 76.0087 115.676C72.7813 113.869 69.6859 111.834 66.746 109.584C61.1756 105.366 56.1112 100.511 51.6548 95.1174ZM114.168 63.3962C114.051 63.2466 113.933 63.0953 113.807 62.9528L113.202 62.2993C113.107 62.1978 113.013 62.0952 112.918 61.9924L112.75 61.8093C112.499 61.5352 112.248 61.2612 111.99 60.9968C108.64 57.6607 104.598 55.111 100.153 53.5301C97.9738 52.7568 95.6989 52.2884 93.3925 52.138C91.1337 52 88.8679 52.2449 86.6898 52.8624C86.3544 52.9436 86.0258 53.0512 85.7071 53.184L84.7357 53.5421C84.098 53.8096 83.4768 54.1154 82.8756 54.4578C81.6549 55.1416 80.5127 55.9585 79.4698 56.8937C78.4143 57.8454 77.4459 58.8906 76.5764 60.0167C75.7016 61.1601 74.926 62.3768 74.2578 63.6534C72.9042 66.2365 71.958 69.0156 71.4533 71.891C70.9437 74.8234 70.7719 77.8051 70.9413 80.777C71.0201 82.2754 71.1555 83.7774 71.373 85.2748C71.5963 86.7707 71.877 88.2626 72.2053 89.7478L72.4638 90.8596C72.5211 91.0972 72.5854 91.3342 72.6495 91.5705C72.6851 91.7018 72.7209 91.834 72.7554 91.9655L73.3471 94.1762C73.4714 94.6505 73.6235 95.1174 73.7755 95.5839C73.8599 95.8431 73.9444 96.1025 74.0241 96.3632C74.1101 96.6216 74.1913 96.8819 74.2724 97.142C74.4185 97.6106 74.5646 98.0794 74.7395 98.5385C76.7985 104.308 79.4386 109.852 82.6185 115.081C83.5364 116.573 84.4897 118.043 85.4776 119.487C85.6702 119.536 85.8633 119.584 86.0567 119.63C90.6919 120.632 95.5039 120.437 100.044 119.065C104.619 117.686 108.845 115.333 112.435 112.165C116.007 109.012 118.822 105.085 120.669 100.68C120.832 100.326 120.956 99.9538 121.08 99.5814C121.143 99.3903 121.207 99.1992 121.276 99.0107L121.566 98.1699L121.712 97.75L122.26 95.5915C122.273 95.54 122.286 95.4887 122.3 95.4374C122.324 95.3452 122.348 95.2531 122.367 95.1596L122.441 94.7195L122.591 93.8399C122.794 92.6671 122.936 91.4843 123.014 90.2965C123.049 89.9182 123.052 89.5372 123.055 89.1563C123.056 88.9403 123.058 88.7244 123.065 88.5089C123.091 87.9129 123.085 87.3159 123.048 86.7205L122.948 84.9325C122.918 84.5567 122.868 84.1824 122.817 83.8082C122.788 83.5901 122.759 83.3716 122.733 83.1532L122.627 82.2634C122.605 82.0731 122.567 81.8849 122.529 81.6968C122.507 81.5917 122.486 81.4865 122.468 81.381L122.13 79.6191C122.044 79.2547 121.946 78.8924 121.849 78.5303C121.792 78.3145 121.734 78.0986 121.678 77.8822L121.45 77.0142C121.395 76.8313 121.333 76.6507 121.271 76.4701C121.236 76.3678 121.2 76.2655 121.166 76.1627L120.592 74.4622L119.561 71.9755L118.363 69.5675L117 67.2524L115.48 65.0428L114.368 63.647C114.331 63.6019 114.294 63.5563 114.258 63.5105C114.228 63.4725 114.198 63.4343 114.168 63.3962Z" fill="#1A1A1A"/>
</svg>
