<svg width="24" height="24" viewBox="0 0 24 24" fill="none" xmlns="http://www.w3.org/2000/svg">
<path d="M12 9.50002C11.7761 9.50002 11.559 9.52946 11.3525 9.58469L4.31171 2.54395L17.6921 5.69228C18.4831 5.87839 19.0828 6.52456 19.2096 7.32719L20.0743 12.8038C20.1073 13.0126 20.2055 13.2055 20.355 13.355L21.5858 14.5858C22.3668 15.3668 22.3668 16.6332 21.5858 17.4142L17.4142 21.5858C16.6332 22.3668 15.3668 22.3668 14.5858 21.5858L13.355 20.355C13.2055 20.2055 13.0126 20.1073 12.8038 20.0743L7.32719 19.2096C6.52456 19.0828 5.87839 18.4831 5.69228 17.6921L2.54395 4.31171L9.58469 11.3525C9.52946 11.559 9.50002 11.7761 9.50002 12C9.50002 13.3807 10.6193 14.5 12 14.5C13.3807 14.5 14.5 13.3807 14.5 12C14.5 10.6193 13.3807 9.50002 12 9.50002Z" fill="#F56628"/>
</svg>
