<svg width="137" height="28" viewBox="0 0 137 28" fill="none" xmlns="http://www.w3.org/2000/svg">
<path d="M12.7442 1C16.1241 1 19.366 2.36935 21.756 4.80732C22.1849 5.24488 22.5798 5.71067 22.9395 6.2H12.7442C10.7162 6.2 8.77125 7.02174 7.33721 8.48449C5.90324 9.94731 5.09767 11.9313 5.09767 14H12.7442L23.5195 7.05757C24.3195 8.34981 24.8901 9.77675 25.2046 11.2718L20.3907 14H25.4884L25.4846 14.3231C25.4036 17.6538 24.0712 20.831 21.756 23.1927C19.366 25.6306 16.1241 27 12.7442 27C9.36424 27 6.1224 25.6306 3.7324 23.1927C3.30346 22.7551 2.9086 22.2893 2.54884 21.8H12.7442C14.7722 21.8 16.7171 20.9783 18.1512 19.5155C19.4955 18.1441 20.2877 16.3145 20.3814 14.3866L20.3907 14H12.7442L1.96887 20.9412C1.16897 19.6489 0.599615 18.2218 0.285002 16.7269L5.09767 14H0C5.10361e-07 10.5522 1.34241 7.2453 3.7324 4.80732C6.1224 2.36935 9.36424 1 12.7442 1Z" fill="#0094F7"/>
<path d="M58.798 20.7882C59.397 21.9336 60.553 22.655 62.0432 22.655C63.5332 22.6549 64.6887 21.9336 65.2877 20.7882H67.5294C66.7877 23.0771 64.7295 24.6074 62.0432 24.6075C59.3565 24.6075 57.2981 23.0772 56.5565 20.7882H58.798Z" fill="#003253"/>
<path fill-rule="evenodd" clip-rule="evenodd" d="M91.4413 8.64387C94.8568 8.64387 97.2495 11.0404 97.2495 14.4799C97.2495 18.1191 94.5955 20.1833 91.7892 20.1833C90.049 20.1832 88.5701 19.3841 87.7869 17.9641V24.5765H85.7198V14.5021C85.7198 10.9295 88.1132 8.64387 91.4413 8.64387ZM91.463 10.5964C89.2659 10.5964 87.7869 12.1943 87.7869 14.4132C87.7869 16.6322 89.2659 18.2301 91.463 18.2301C93.6818 18.2301 95.1614 16.6323 95.1614 14.4132C95.1614 12.1942 93.6818 10.5964 91.463 10.5964Z" fill="#003253"/>
<path fill-rule="evenodd" clip-rule="evenodd" d="M49.7395 8.64387C53.1331 8.64387 55.526 11.0848 55.526 14.4132C55.526 17.7418 53.1331 20.1833 49.7395 20.1833C46.346 20.1833 43.953 17.7418 43.953 14.4132C43.9531 11.0848 46.346 8.64387 49.7395 8.64387ZM49.7395 10.5964C47.5207 10.5964 46.0414 12.1942 46.0414 14.4132C46.0414 16.6323 47.5207 18.2301 49.7395 18.2301C51.9584 18.2301 53.4377 16.6323 53.4377 14.4132C53.4377 12.1942 51.9584 10.5964 49.7395 10.5964Z" fill="#003253"/>
<path fill-rule="evenodd" clip-rule="evenodd" d="M62.2722 8.64894H67.8933V10.5342H66.4436C67.3217 11.5386 67.8295 12.8815 67.8295 14.4132C67.8295 17.7417 65.4368 20.1831 62.0432 20.1833C58.6496 20.1833 56.2566 17.7418 56.2566 14.4132C56.2567 11.0848 58.6496 8.64387 62.0432 8.64387C62.12 8.64387 62.1964 8.6464 62.2722 8.64894ZM62.0432 10.5964C59.8243 10.5964 58.3451 12.1942 58.345 14.4132C58.345 16.6323 59.8243 18.2301 62.0432 18.2301C64.2618 18.2299 65.7408 16.6322 65.7408 14.4132C65.7408 12.1944 64.2618 10.5965 62.0432 10.5964Z" fill="#003253"/>
<path fill-rule="evenodd" clip-rule="evenodd" d="M74.3463 8.64387C77.7394 8.64387 80.1328 11.0848 80.1328 14.4132C80.1328 17.7418 77.7401 20.1833 74.3463 20.1833C70.9525 20.1833 68.5598 17.7418 68.5598 14.4132C68.5598 11.0848 70.9525 8.64387 74.3463 8.64387ZM74.3463 10.5964C72.1275 10.5964 70.6479 12.1942 70.6479 14.4132C70.6479 16.6323 72.1275 18.2301 74.3463 18.2301C76.565 18.2301 78.0446 16.6323 78.0446 14.4132C78.044 12.1942 76.565 10.5964 74.3463 10.5964Z" fill="#003253"/>
<path d="M102.473 8.64387C105.041 8.64393 106.629 10.1309 106.672 12.017H104.626C104.561 11.1738 103.801 10.5521 102.496 10.5519C101.125 10.5519 100.342 11.2182 100.342 12.0837C100.342 13.1263 101.473 13.2372 102.8 13.4147C104.67 13.6588 106.954 14.014 106.955 16.5213C106.955 18.7403 105.193 20.1831 102.496 20.1833C99.7977 20.1833 98.1008 18.7183 98.0358 16.7212H100.124C100.167 17.631 100.994 18.2745 102.496 18.2745C104.061 18.2744 104.866 17.5866 104.866 16.7212C104.866 15.6783 103.735 15.5448 102.387 15.3673C100.516 15.1232 98.2531 14.7683 98.2531 12.2607C98.2531 10.1083 99.9066 8.64387 102.473 8.64387Z" fill="#003253"/>
<path d="M110.226 14.657C110.226 17.0314 111.51 18.2301 113.468 18.2301C115.426 18.2301 116.709 17.0313 116.709 14.657V8.93201H118.776V14.657C118.776 18.2962 116.644 20.1826 113.468 20.1826C110.292 20.1826 108.16 18.3184 108.16 14.657V8.93201H110.226V14.657Z" fill="#003253"/>
<path d="M35.3538 17.8086H43.3376V19.8945H33.1348V5.38179H35.3538V17.8086Z" fill="#003253"/>
<path d="M83.7559 19.8945H81.6895V8.93201H83.7559V19.8945Z" fill="#003253"/>
<path d="M132.386 8.64387C134.91 8.64387 136.825 10.1972 136.825 13.5481V19.8945H134.758V13.5481C134.758 11.5067 133.692 10.5965 132.191 10.5964C130.734 10.5964 129.645 11.5509 129.645 13.5481V19.8945H127.579V13.5481C127.579 11.5509 126.469 10.5964 125.012 10.5964C123.511 10.5965 122.445 11.5066 122.445 13.5481V19.8945H120.378V13.5481C120.378 10.1972 122.293 8.64387 124.816 8.64387C126.469 8.64393 127.862 9.39846 128.601 10.8186C129.341 9.39839 130.711 8.64387 132.386 8.64387Z" fill="#003253"/>
<path d="M82.7122 4.25C83.5387 4.25 84.1478 4.87125 84.1485 5.7144C84.1485 6.55765 83.5387 7.20166 82.7122 7.20166C81.8857 7.20157 81.2766 6.55759 81.2766 5.7144C81.2766 4.87131 81.8857 4.25008 82.7122 4.25Z" fill="#003253"/>
</svg>
