<svg width="24" height="24" viewBox="0 0 24 24" fill="none" xmlns="http://www.w3.org/2000/svg">
<path fill-rule="evenodd" clip-rule="evenodd" d="M7.59715 3C4.46571 3 1.86087 5.4082 1.61558 8.53002L1.50009 10L0.82832 17.3894C0.652059 19.3283 2.17867 21 4.12554 21C5.2885 21 6.36619 20.3898 6.96453 19.3926L9.00009 16H15.0001L17.0356 19.3926C17.634 20.3898 18.7117 21 19.8746 21C21.8215 21 23.3481 19.3283 23.1719 17.3894L22.5001 10L22.3846 8.53002C22.1393 5.4082 19.5345 3 16.403 3H7.59715ZM8.00012 12C7.44784 12 7.00012 11.5523 7.00012 11V10.5H6.50012C5.94784 10.5 5.50012 10.0523 5.50012 9.5C5.50012 8.94772 5.94784 8.5 6.50012 8.5H7.00012V8C7.00012 7.44772 7.44784 7 8.00012 7C8.55241 7 9.00012 7.44772 9.00012 8V8.5H9.50012C10.0524 8.5 10.5001 8.94772 10.5001 9.5C10.5001 10.0523 10.0524 10.5 9.50012 10.5H9.00012V11C9.00012 11.5523 8.55241 12 8.00012 12ZM13.5001 9.5C13.5001 8.94772 13.9478 8.5 14.5001 8.5H17.5001C18.0524 8.5 18.5001 8.94772 18.5001 9.5C18.5001 10.0523 18.0524 10.5 17.5001 10.5H14.5001C13.9478 10.5 13.5001 10.0523 13.5001 9.5Z" fill="#49C420"/>
</svg>
