<svg width="24" height="24" viewBox="0 0 24 24" fill="none" xmlns="http://www.w3.org/2000/svg">
<path d="M7 3C5.89543 3 5 3.89543 5 5V19C5 20.1046 5.89543 21 7 21H17C18.1046 21 19 20.1046 19 19V5C19 3.89543 18.1046 3 17 3H7Z" fill="#1A1A1A"/>
<path d="M1.75 5C1.05964 5 0.5 5.55964 0.5 6.25V17.75C0.5 18.4404 1.05964 19 1.75 19C2.44036 19 3 18.4404 3 17.75V6.25C3 5.55964 2.44036 5 1.75 5Z" fill="#1A1A1A"/>
<path d="M22.25 5C21.5596 5 21 5.55964 21 6.25V17.75C21 18.4404 21.5596 19 22.25 19C22.9404 19 23.5 18.4404 23.5 17.75V6.25C23.5 5.55964 22.9404 5 22.25 5Z" fill="#1A1A1A"/>
</svg>
