<svg width="24" height="24" viewBox="0 0 24 24" fill="none" xmlns="http://www.w3.org/2000/svg">
<path fill-rule="evenodd" clip-rule="evenodd" d="M22 12C22 17.5228 17.5228 22 12 22C6.47715 22 2 17.5228 2 12C2 6.47715 6.47715 2 12 2C17.5228 2 22 6.47715 22 12ZM16.5001 8.99997C16.9883 9.48813 16.9883 10.2796 16.5001 10.7677L11.884 15.3839C11.3958 15.872 10.6044 15.872 10.1162 15.3839L8.0001 13.2677C7.51194 12.7796 7.51194 11.9881 8.0001 11.5C8.48825 11.0118 9.27971 11.0118 9.76787 11.5L11.0001 12.7322L14.7323 8.99997C15.2205 8.51182 16.0119 8.51182 16.5001 8.99997Z" fill="#1A1A1A"/>
</svg>
