<svg width="24" height="24" viewBox="0 0 24 24" fill="none" xmlns="http://www.w3.org/2000/svg">
<path d="M14.7692 6.49983H10.0088C6.97122 6.49983 4.50879 8.96226 4.50879 11.9998C4.50879 12.6029 4.60585 13.1833 4.78519 13.7262C4.95748 14.2478 4.8826 14.8405 4.49419 15.2289L4.40891 15.3142C3.84931 15.8738 2.91048 15.7773 2.60898 15.0455C2.22216 14.1067 2.00879 13.0782 2.00879 11.9998C2.00879 7.58155 5.59051 3.99983 10.0088 3.99983H14.7692L13.8979 3.12851C13.4097 2.64036 13.4097 1.8489 13.8979 1.36075C14.386 0.872589 15.1775 0.872589 15.6656 1.36075L18.6709 4.36595C18.9053 4.60037 19.037 4.91831 19.037 5.24983C19.037 5.58135 18.9053 5.89929 18.6708 6.13371L15.6656 9.13891C15.1775 9.62707 14.386 9.62707 13.8979 9.13891C13.4097 8.65076 13.4097 7.8593 13.8979 7.37115L14.7692 6.49983Z" fill="white"/>
<path d="M10.1197 20.8709L9.24858 19.9998H14.0088C18.4271 19.9998 22.0088 16.4181 22.0088 11.9998C22.0088 10.9214 21.7954 9.8929 21.4086 8.9541C21.1071 8.22239 20.1683 8.12588 19.6087 8.68548L19.5234 8.77076C19.135 9.15917 19.0601 9.75186 19.2324 10.2734C19.4117 10.8164 19.5088 11.3968 19.5088 11.9998C19.5088 15.0374 17.0464 17.4998 14.0088 17.4998H9.24819L10.1197 16.6283C10.6079 16.1402 10.6079 15.3487 10.1197 14.8605C9.63155 14.3724 8.84009 14.3724 8.35194 14.8605L5.34673 17.8657C5.11231 18.1002 4.98061 18.4181 4.98062 18.7496C4.98061 19.0811 5.11231 19.3991 5.34673 19.6335L8.35194 22.6387C8.84009 23.1269 9.63155 23.1269 10.1197 22.6387C10.6079 22.1506 10.6079 21.3591 10.1197 20.8709Z" fill="white"/>
</svg>
