<svg width="67" height="28" viewBox="0 0 67 28" fill="none" xmlns="http://www.w3.org/2000/svg">
<g clip-path="url(#clip0_99_812)">
<path d="M15.9037 1C13.2871 1 10.7778 2.04871 8.92766 3.91543L2.88956 10.0076C1.0394 11.8743 0 14.4061 0 17.0461C0 22.5435 4.41697 27 9.86558 27C12.4821 27 14.9914 25.9512 16.8416 24.0845L21.0182 19.8705C21.0182 19.8705 21.0182 19.8706 21.0182 19.8705L33.1873 7.59239C34.071 6.70086 35.2694 6.2 36.519 6.2C38.6112 6.2 40.3849 7.57576 40.9998 9.47953L44.8404 5.60457C43.0883 2.83589 40.0162 1 36.519 1C33.9025 1 31.3932 2.04871 29.543 3.91543L13.1973 20.4076C12.3137 21.2992 11.1152 21.8 9.86558 21.8C7.26335 21.8 5.15385 19.6716 5.15385 17.0461C5.15385 15.7852 5.65026 14.5761 6.53387 13.6845L12.5719 7.59239C13.4556 6.70086 14.654 6.2 15.9037 6.2C17.9959 6.2 19.7695 7.57582 20.3844 9.47965L24.2251 5.60466C22.473 2.83595 19.4009 1 15.9037 1Z" fill="#394149"/>
<path d="M33.8128 20.4076C32.9292 21.2992 31.7308 21.8 30.4811 21.8C28.3893 21.8 26.6157 20.4246 26.0006 18.5211L22.1602 22.396C23.9123 25.1643 26.9842 27 30.4811 27C33.0976 27 35.607 25.9512 37.4571 24.0845L53.8029 7.59239C54.6865 6.70086 55.885 6.2 57.1346 6.2C59.7369 6.2 61.8463 8.32839 61.8463 10.9539C61.8463 12.2148 61.3499 13.4239 60.4663 14.3155L54.4282 20.4076C53.5446 21.2992 52.3461 21.8 51.0965 21.8C49.0045 21.8 47.2309 20.4243 46.6158 18.5207L42.7754 22.3957C44.5274 25.1642 47.5995 27 51.0965 27C53.713 27 56.2224 25.9512 58.0725 24.0845L64.1106 17.9924C65.9607 16.1257 67.0002 13.5939 67.0002 10.9539C67.0002 5.45652 62.5832 1 57.1346 1C54.5181 1 52.0087 2.04871 50.1586 3.91543L33.8128 20.4076Z" fill="#394149"/>
</g>
<defs>
<clipPath id="clip0_99_812">
<rect width="67" height="28" fill="white"/>
</clipPath>
</defs>
</svg>
