<svg width="89" height="28" viewBox="0 0 89 28" fill="none" xmlns="http://www.w3.org/2000/svg">
<path fill-rule="evenodd" clip-rule="evenodd" d="M7.58523 18C6.91465 18 6.27154 17.7366 5.79737 17.2678C5.3232 16.7989 5.05682 16.163 5.05682 15.5V4H0V15.5C0 19.642 3.39616 23 7.58523 23H13.1477V18H7.58523ZM22.7557 9C22.158 9 21.5662 9.1164 21.014 9.34254C20.4619 9.56869 19.9602 9.90016 19.5375 10.318C19.1149 10.7359 18.7797 11.232 18.551 11.7779C18.3223 12.3239 18.2045 12.9091 18.2045 13.5C18.2045 14.0909 18.3223 14.6761 18.551 15.2221C18.7797 15.768 19.1149 16.2641 19.5375 16.682C19.9602 17.0998 20.4619 17.4313 21.014 17.6575C21.5662 17.8836 22.158 18 22.7557 18C23.9627 18 25.1203 17.5259 25.9738 16.682C26.8273 15.8381 27.3068 14.6935 27.3068 13.5C27.3068 12.3065 26.8273 11.1619 25.9738 10.318C25.1203 9.47411 23.9627 9 22.7557 9ZM13.1477 13.5C13.1477 8.2535 17.4496 4 22.7557 4C28.0618 4 32.3636 8.2535 32.3636 13.5C32.3636 18.7465 28.0618 23 22.7557 23C17.4496 23 13.1477 18.7465 13.1477 13.5ZM77.3693 9C76.1623 9 75.0047 9.47411 74.1512 10.318C73.2977 11.1619 72.8182 12.3065 72.8182 13.5C72.8182 14.6935 73.2977 15.8381 74.1512 16.682C75.0047 17.5259 76.1623 18 77.3693 18C78.5764 18 79.734 17.5259 80.5875 16.682C81.441 15.8381 81.9205 14.6935 81.9205 13.5C81.9205 12.3065 81.441 11.1619 80.5875 10.318C79.734 9.47411 78.5764 9 77.3693 9ZM67.7614 13.5C67.7614 8.2535 72.0632 4 77.3693 4C82.6754 4 86.9773 8.2535 86.9773 13.5C86.9773 18.7465 82.6754 23 77.3693 23C72.0632 23 67.7614 18.7465 67.7614 13.5ZM42.983 4C37.6768 4 33.375 8.2535 33.375 13.5C33.375 18.7465 37.6768 23 42.983 23H57.142C58.1377 23 59.098 22.85 60.0012 22.572L62.7045 24L65.6213 18.598C66.3623 17.2228 66.7499 15.6886 66.75 14.1305V13.5C66.75 8.2535 62.4482 4 57.142 4H42.983ZM61.6932 13.5C61.6932 12.3065 61.2137 11.1619 60.3602 10.318C59.5067 9.47411 58.3491 9 57.142 9H42.983C42.3853 9 41.7935 9.1164 41.2413 9.34254C40.6891 9.56869 40.1874 9.90016 39.7648 10.318C39.3422 10.7359 39.007 11.232 38.7783 11.7779C38.5495 12.3239 38.4318 12.9091 38.4318 13.5C38.4318 14.0909 38.5495 14.6761 38.7783 15.2221C39.007 15.768 39.3422 16.2641 39.7648 16.682C40.1874 17.0998 40.6891 17.4313 41.2413 17.6575C41.7935 17.8836 42.3853 18 42.983 18H57.142C58.343 18 59.4952 17.5307 60.3477 16.6944C61.2002 15.858 61.6838 14.7224 61.6932 13.535V13.5Z" fill="#283841"/>
<path d="M89 5.25C89 5.58152 88.8668 5.89946 88.6297 6.13388C88.3926 6.3683 88.0711 6.5 87.7358 6.5C87.4005 6.5 87.079 6.3683 86.8419 6.13388C86.6048 5.89946 86.4716 5.58152 86.4716 5.25C86.4716 4.91848 86.6048 4.60054 86.8419 4.36612C87.079 4.1317 87.4005 4 87.7358 4C88.0711 4 88.3926 4.1317 88.6297 4.36612C88.8668 4.60054 89 4.91848 89 5.25Z" fill="#283841"/>
</svg>
