<svg width="24" height="24" viewBox="0 0 24 24" fill="none" xmlns="http://www.w3.org/2000/svg">
<path d="M13.0607 8.06068C12.4749 7.4749 12.4749 6.52515 13.0607 5.93936L15.9393 3.06068C16.5251 2.47489 17.4749 2.47489 18.0607 3.06068L20.9394 5.93936C21.5251 6.52515 21.5251 7.4749 20.9394 8.06068L18.0607 10.9394C17.4749 11.5252 16.5251 11.5252 15.9393 10.9394L13.0607 8.06068Z" fill="#1A1A1A"/>
<path d="M5 3.00003C3.89543 3.00003 3 3.89546 3 5.00003V9.00003C3 10.1046 3.89543 11 5 11H9C10.1046 11 11 10.1046 11 9.00003V5.00003C11 3.89546 10.1046 3.00003 9 3.00003H5Z" fill="#1A1A1A"/>
<path d="M3 15C3 13.8955 3.89543 13 5 13H9C10.1046 13 11 13.8955 11 15V19C11 20.1046 10.1046 21 9 21H5C3.89543 21 3 20.1046 3 19V15Z" fill="#1A1A1A"/>
<path d="M13 15C13 13.8955 13.8954 13 15 13H19C20.1046 13 21 13.8955 21 15V19C21 20.1046 20.1046 21 19 21H15C13.8954 21 13 20.1046 13 19V15Z" fill="#1A1A1A"/>
</svg>
