<svg width="24" height="24" viewBox="0 0 24 24" fill="none" xmlns="http://www.w3.org/2000/svg">
<path fill-rule="evenodd" clip-rule="evenodd" d="M15.75 6.5C15.0596 6.5 14.5 5.94036 14.5 5.25V5C14.5 3.61929 13.3807 2.5 12 2.5C10.6193 2.5 9.5 3.61929 9.5 5V9H19C20.1046 9 21 9.89543 21 11V19C21 20.1046 20.1046 21 19 21H5C3.89543 21 3 20.1046 3 19V11C3 9.89543 3.89543 9 5 9H7V5C7 2.23858 9.23858 0 12 0C14.7614 0 17 2.23858 17 5V5.25C17 5.94036 16.4404 6.5 15.75 6.5ZM12 16.75C12.9665 16.75 13.75 15.9665 13.75 15C13.75 14.0335 12.9665 13.25 12 13.25C11.0335 13.25 10.25 14.0335 10.25 15C10.25 15.9665 11.0335 16.75 12 16.75Z" fill="white"/>
</svg>
