<svg width="24" height="24" viewBox="0 0 24 24" fill="none" xmlns="http://www.w3.org/2000/svg">
<path d="M9.25 3C10.0784 3 10.75 3.67157 10.75 4.5V9.25C10.75 10.0784 10.0784 10.75 9.25 10.75H4.5C3.67157 10.75 3 10.0784 3 9.25V4.5C3 3.67157 3.67157 3 4.5 3H9.25Z" fill="white"/>
<path d="M13.25 4.5C13.25 3.67157 13.9216 3 14.75 3H19.5C20.3284 3 21 3.67157 21 4.5V9.25C21 10.0784 20.3284 10.75 19.5 10.75H14.75C13.9216 10.75 13.25 10.0784 13.25 9.25V4.5Z" fill="white"/>
<path d="M21 14.75C21 13.9216 20.3284 13.25 19.5 13.25H14.75C13.9216 13.25 13.25 13.9216 13.25 14.75V19.5C13.25 20.3284 13.9216 21 14.75 21H19.5C20.3284 21 21 20.3284 21 19.5V14.75Z" fill="white"/>
<path d="M10.75 19.5C10.75 20.3284 10.0784 21 9.25 21H4.5C3.67157 21 3 20.3284 3 19.5V14.75C3 13.9216 3.67157 13.25 4.5 13.25H9.25C10.0784 13.25 10.75 13.9216 10.75 14.75V19.5Z" fill="white"/>
</svg>
