<svg width="200" height="200" viewBox="0 0 200 200" fill="none" xmlns="http://www.w3.org/2000/svg">
<path fill-rule="evenodd" clip-rule="evenodd" d="M100.875 126.2C100.82 126.139 100.765 126.078 100.709 126.017L100.875 126.2Z" fill="#1A1A1A"/>
<path fill-rule="evenodd" clip-rule="evenodd" d="M128.75 147.194C128.639 147.157 128.672 147.077 128.75 147.194V147.194Z" fill="#1A1A1A"/>
<path fill-rule="evenodd" clip-rule="evenodd" d="M128.75 147.194C128.639 147.157 128.672 147.077 128.75 147.194V147.194Z" fill="#1A1A1A"/>
<path d="M108.907 134.737L103.4 128.928C102.482 127.978 101.595 126.997 100.709 126.017L100.685 125.99L97.9928 123.031C97.6112 122.609 97.2266 122.19 96.8418 121.77C96.2698 121.147 95.697 120.522 95.1338 119.89C94.1958 118.829 93.2493 117.775 92.2859 116.743C91.7981 116.217 91.3078 115.694 90.8175 115.171C90.0191 114.319 89.2204 113.466 88.4323 112.605L84.6624 108.392C82.6734 106.215 80.7607 103.973 78.8479 101.731C78.3147 101.106 77.7814 100.481 77.2465 99.8569L75.4142 97.7036L73.6296 95.5117L70.0651 91.1227L69.1769 90.0228L66.5883 86.6648L63.1495 82.1763L59.058 76.5434C58.8246 76.2189 58.5895 75.8955 58.3544 75.5722C57.9072 74.9572 57.4595 74.3415 57.0238 73.7185L55.0499 70.8517C54.6066 70.2022 54.1594 69.5541 53.7127 68.9068C52.8417 67.6444 51.9706 66.382 51.1243 65.1034L47.3233 59.2732C42.3355 51.4504 37.5301 43.509 33.0852 35.3714C32.4065 34.1485 31.7651 32.8977 31.1466 31.6406C30.6447 30.5758 30.1682 29.5015 29.6959 28.4367C29.6057 28.2332 29.5156 28.0301 29.4256 27.8275C28.3549 25.4046 28.1105 23.6109 28.3398 22.3127C28.6749 20.424 30.525 21.2325 32.5296 24.3708C33.1644 25.3645 33.7824 26.4274 34.3759 27.5144L36.112 30.7819C41.2032 40.7188 47.0346 50.2673 53.5578 59.3484L56.2804 63.1457C57.2031 64.405 58.0893 65.6749 58.8692 66.9541C61.1997 70.8618 63.8659 74.5647 66.5322 78.2675L66.9529 78.8518C67.7645 79.9405 68.5879 81.0212 69.4111 82.1015C70.0439 82.932 70.6767 83.7625 71.3041 84.5967C71.6183 85.0089 71.9289 85.4238 72.2394 85.8387C72.6483 86.385 73.0571 86.9311 73.4739 87.4711L75.6707 90.3221C76.7488 91.7416 77.8379 93.1556 78.9383 94.5638C79.73 95.5574 80.5407 96.537 81.3517 97.5168C81.6812 97.9149 82.0107 98.313 82.3391 98.7122L85.7669 102.843L89.2645 106.914C97.5526 116.606 106.238 125.972 115.361 134.919C116.272 135.81 117.154 136.704 118.006 137.601C118.428 138.039 118.826 138.494 119.22 138.946L119.239 138.967C119.648 139.416 120.049 139.865 120.442 140.313C122.015 142.108 123.451 143.903 124.734 145.679C125.271 146.427 125.305 146.866 125.612 147.213C125.959 147.233 125.917 147.237 126.264 147.262C126.325 147.267 126.385 147.273 126.444 147.278C126.724 147.256 127.004 147.234 127.285 147.213L127.267 147.203C126.538 146.741 125.878 146.181 125.305 145.539C124.411 144.539 123.596 143.473 122.865 142.35C120.604 138.849 118.724 135.12 117.258 131.227C115.367 126.192 113.884 121.016 112.824 115.748C111.92 111.306 111.25 106.85 110.696 102.402C110.142 101.208 110.541 101.144 110.412 100.039C110.348 99.4871 110.485 98.9303 110.799 98.4691C111.113 98.0079 111.583 97.6726 112.124 97.5236C112.665 97.3746 113.243 97.4216 113.752 97.6562C114.262 97.8908 114.67 98.2975 114.903 98.8033L114.919 98.8379C115.364 99.8133 115.739 99.6718 115.88 100.908C118.912 107.328 122.315 113.57 126.073 119.604C126.394 120.142 126.737 120.671 127.088 121.198L128.132 122.788L129.175 124.385L129.695 125.185L130.236 125.971C130.953 127.019 131.66 128.068 132.344 129.117L132.854 129.903L133.377 130.674C133.722 131.188 134.06 131.701 134.391 132.214C138.674 138.77 143.423 145.017 148.601 150.907C153.754 156.854 159.214 162.557 164.689 168.243C166.307 169.944 167.97 171.61 169.638 173.282L170.034 173.679C170.232 173.779 170.43 173.879 170.628 173.979L170.503 174.149C170.683 174.329 170.862 174.51 171.042 174.691L171.059 174.708C171.454 175.105 171.693 175.629 171.733 176.185C171.773 176.741 171.612 177.293 171.277 177.742C170.943 178.191 170.458 178.507 169.91 178.634C169.361 178.761 168.784 178.691 168.284 178.435L167.939 178.259L167.926 178.253L167.914 178.247L167.601 178.087L167.472 178.262L166.953 177.759C163.515 176.021 160.045 174.335 156.492 172.843C154.909 172.137 153.298 171.503 151.687 170.868C151.275 170.706 150.862 170.543 150.45 170.38C149.81 170.12 149.16 169.889 148.51 169.657C148.136 169.524 147.762 169.391 147.39 169.253C147.225 169.194 147.06 169.134 146.895 169.074L146.652 168.985C145.877 168.703 145.102 168.42 144.315 168.173L141.247 167.163C140.591 166.957 139.93 166.763 139.27 166.57C138.897 166.46 138.523 166.351 138.151 166.239L136.601 165.781L135.038 165.367L131.908 164.549C127.712 163.536 123.48 162.647 119.209 161.906C111.458 160.56 103.609 159.618 95.7334 158.796L94.9262 158.712C94.3936 158.657 93.8608 158.602 93.328 158.548L93.2873 158.544C92.9262 158.508 92.5857 158.361 92.313 158.124C92.0404 157.887 91.8493 157.571 91.7662 157.222C91.6832 156.872 91.7123 156.506 91.8496 156.173C91.9869 155.841 92.2256 155.559 92.5323 155.367C92.9796 155.089 93.4308 154.817 93.8857 154.551L94.6735 154.1C97.2544 152.651 99.9504 151.408 102.736 150.386C104.737 149.651 106.784 149.043 108.864 148.565C110.856 148.1 112.873 147.748 114.906 147.51C117.992 147.15 121.101 147.029 124.205 147.148C123.938 147.03 123.628 146.852 123.277 146.608C121.933 145.668 120.567 144.688 119.198 143.684C118.923 143.479 118.645 143.274 118.368 143.069C117.274 142.262 116.171 141.45 115.15 140.554C113.57 139.172 112.039 137.677 110.511 136.185C110.001 135.688 109.492 135.19 108.981 134.698L108.907 134.737Z" fill="#1A1A1A"/>
</svg>
